<svg xmlns="http://www.w3.org/2000/svg" xmlns:xlink="http://www.w3.org/1999/xlink" width="200" zoomAndPan="magnify" viewBox="0 0 150 149.999998" height="200" preserveAspectRatio="xMidYMid meet" version="1.0"><defs><clipPath id="470d022a98"><path d="M 49.628906 2.25 L 100.628906 2.25 L 100.628906 147.75 L 49.628906 147.75 Z M 49.628906 2.25 " clip-rule="nonzero"/></clipPath></defs><rect x="-15" width="180" fill="#ffffff" y="-15" height="179.999997" fill-opacity="1"/><rect x="-15" width="180" fill="#ffffff" y="-15" height="179.999997" fill-opacity="1"/><rect x="-15" width="180" fill="#ffffff" y="-15" height="179.999997" fill-opacity="1"/><g clip-path="url(#470d022a98)"><path fill="#000000" d="M 80.59375 133.261719 C 80.757812 133.558594 80.894531 133.832031 80.964844 134.0625 L 80.726562 133.875 C 80.652344 133.675781 80.609375 133.472656 80.59375 133.261719 C 80.1875 132.515625 79.628906 131.621094 79.628906 130.839844 C 79.628906 129.515625 79.058594 127.996094 79.441406 126.671875 C 79.773438 125.535156 80.15625 124.679688 80.105469 123.449219 C 80.058594 122.308594 79.488281 121.457031 79.535156 120.320312 C 79.628906 118.1875 80.058594 116.101562 80.203125 113.921875 C 80.34375 111.882812 80.15625 109.703125 79.675781 107.714844 C 79.441406 106.71875 78.964844 105.628906 79.105469 104.539062 C 79.203125 103.496094 79.820312 102.597656 80.058594 101.648438 C 80.726562 99.421875 79.675781 97.289062 79.488281 95.058594 C 79.390625 94.113281 79.582031 93.070312 79.726562 92.121094 C 79.867188 91.269531 79.726562 89.421875 80.34375 88.851562 C 80.773438 89.5625 80.628906 90.605469 80.726562 91.410156 C 81.058594 94.066406 81.296875 96.671875 81.25 99.375 C 81.203125 100.84375 81.34375 102.261719 81.582031 103.734375 C 81.820312 105.25 81.535156 106.054688 80.964844 107.476562 C 80.441406 108.804688 80.867188 110.226562 80.867188 111.601562 C 80.867188 112.976562 80.820312 114.394531 80.917969 115.769531 C 80.964844 116.90625 80.917969 117.902344 80.820312 118.992188 C 80.726562 120.082031 81.34375 120.984375 81.25 122.074219 C 81.15625 123.070312 80.773438 123.921875 80.917969 125.011719 C 81.105469 126.148438 81.726562 127.097656 81.726562 128.28125 C 81.683594 129.828125 80.460938 131.703125 80.59375 133.261719 Z M 100.328125 59.933594 C 100.40625 59.367188 100.585938 58.796875 100.605469 58.222656 C 100.625 57.671875 100.40625 57.253906 100.167969 56.777344 C 99.679688 55.785156 100.046875 54.6875 99.484375 53.738281 C 99.183594 53.230469 98.8125 52.792969 98.78125 52.175781 C 98.753906 51.570312 99.011719 50.984375 99.011719 50.378906 C 99.011719 49.734375 98.75 49.144531 98.636719 48.519531 C 98.523438 47.910156 98.609375 47.335938 98.695312 46.730469 C 98.867188 45.550781 98.789062 44.34375 98.882812 43.152344 C 98.96875 42.082031 99.019531 40.90625 98.816406 39.84375 C 98.816406 39.828125 98.8125 39.8125 98.808594 39.796875 C 98.804688 39.402344 98.78125 39.003906 98.722656 38.605469 C 98.449219 36.828125 98.230469 35.019531 97.800781 33.269531 C 97.441406 31.816406 96.921875 30.308594 96.089844 29.046875 C 95.265625 27.792969 94.027344 26.945312 92.679688 26.320312 C 91.558594 25.796875 90.410156 25.269531 89.246094 24.835938 C 88.207031 24.453125 87.1875 24.164062 86.257812 23.542969 C 85.394531 22.96875 84.484375 22.351562 83.984375 21.421875 C 83.414062 20.355469 83.101562 19.046875 83.070312 17.84375 C 83.046875 16.847656 83.113281 15.859375 83.179688 14.871094 C 83.238281 13.992188 83.316406 13.101562 83.308594 12.222656 C 83.304688 11.855469 83.183594 11.375 83.292969 11.023438 C 83.382812 10.730469 83.652344 10.695312 83.910156 10.605469 C 85.144531 10.179688 85.964844 8.8125 85.566406 7.535156 C 85.15625 6.238281 83.679688 5.703125 82.511719 5.300781 C 81.207031 4.855469 79.871094 4.503906 78.566406 4.0625 C 77.328125 3.640625 76.097656 3.253906 74.824219 2.964844 C 73.5625 2.675781 72.253906 2.246094 70.949219 2.28125 C 69.753906 2.3125 68.320312 2.855469 68.566406 4.285156 C 68.664062 4.832031 68.914062 5.335938 69.011719 5.882812 C 69.105469 6.402344 69.039062 6.910156 69.027344 7.429688 C 69.015625 7.992188 69.128906 8.511719 69.300781 9.046875 C 69.476562 9.597656 69.65625 10.160156 69.484375 10.734375 C 69.296875 11.363281 68.792969 11.835938 68.328125 12.269531 C 68.132812 12.453125 67.539062 12.859375 67.738281 13.183594 C 67.914062 13.472656 68.589844 13.554688 68.878906 13.667969 C 69.308594 13.835938 69.664062 14.078125 70 14.382812 C 69.925781 14.960938 69.65625 15.238281 69.359375 15.710938 C 69.070312 16.167969 68.976562 16.820312 69.507812 17.132812 C 69.941406 17.390625 70.304688 17.394531 70.359375 17.980469 C 70.40625 18.472656 70.40625 18.898438 70.542969 19.378906 C 70.671875 19.828125 70.65625 20.3125 70.828125 20.75 C 70.992188 21.171875 71.199219 21.476562 71.253906 21.941406 C 71.308594 22.4375 71.398438 22.894531 71.914062 23.09375 C 72.328125 23.253906 72.867188 23.328125 73.3125 23.339844 C 73.609375 23.351562 73.902344 23.292969 74.195312 23.25 C 74.480469 23.207031 75.683594 23.25 75.171875 23.820312 C 74.933594 24.085938 74.410156 24.121094 74.089844 24.21875 C 73.617188 24.367188 73.246094 24.609375 72.851562 24.898438 C 72.09375 25.457031 71.339844 25.597656 70.410156 25.640625 C 69.5625 25.679688 68.738281 25.75 67.925781 26.015625 C 67.1875 26.253906 66.476562 26.585938 65.78125 26.929688 C 64.171875 27.722656 62.59375 28.570312 61.027344 29.4375 C 60.742188 29.59375 59.710938 30.277344 59.695312 29.566406 C 59.675781 28.84375 60.1875 27.992188 60.449219 27.339844 C 60.765625 26.542969 61.148438 25.671875 61.148438 24.800781 C 61.148438 23.9375 60.582031 23.5625 59.84375 23.273438 C 59.984375 22.757812 61.007812 22.40625 61.480469 22.265625 C 62.132812 22.074219 62.648438 21.765625 63.082031 21.222656 C 63.269531 20.988281 63.460938 20.742188 63.636719 20.5 C 63.847656 20.207031 63.90625 19.933594 64 19.605469 C 64.082031 19.324219 64.441406 19.046875 64.648438 18.835938 C 64.878906 18.601562 65.09375 18.339844 65.289062 18.074219 C 65.589844 17.667969 66.136719 16.789062 65.621094 16.398438 C 65.839844 16.3125 65.976562 16.089844 66.148438 15.941406 C 66.402344 15.722656 66.621094 15.496094 66.84375 15.25 C 67.046875 15.019531 67.246094 14.871094 67.398438 14.597656 C 67.511719 14.398438 67.796875 13.859375 67.355469 13.839844 C 67.675781 13.382812 67.734375 12.800781 66.984375 12.953125 C 66.691406 13.015625 66.425781 13.164062 66.136719 13.242188 C 65.871094 13.316406 65.59375 13.328125 65.332031 13.421875 C 64.855469 13.59375 64.566406 14.042969 64.09375 14.226562 C 63.609375 14.414062 63.105469 14.496094 62.621094 14.703125 C 61.59375 15.152344 60.636719 15.601562 59.765625 16.320312 C 58.882812 17.046875 58.390625 18.15625 57.832031 19.125 C 57.273438 20.082031 56.824219 20.988281 56.585938 22.074219 C 56.464844 22.046875 56.242188 21.980469 56.148438 21.914062 C 55.964844 22.21875 55.785156 22.527344 55.601562 22.832031 C 53.976562 25.546875 52.085938 28.171875 50.8125 31.078125 C 50.265625 32.328125 49.84375 33.660156 49.726562 35.023438 C 49.632812 36.078125 49.703125 37.351562 50.5625 38.101562 C 51.449219 38.875 52.804688 38.855469 53.910156 38.820312 C 55.203125 38.78125 56.507812 38.683594 57.796875 38.554688 C 59.082031 38.429688 60.328125 38.160156 61.582031 37.871094 C 62.65625 37.628906 64.011719 37.261719 65.046875 37.824219 C 65.808594 38.234375 66.285156 39.046875 66.347656 39.894531 C 66.414062 40.769531 66.144531 41.722656 66.140625 41.9375 C 66.128906 42.289062 65.910156 42.703125 65.757812 43.011719 C 65.535156 43.453125 65.101562 43.953125 65.042969 44.449219 C 64.980469 44.964844 65.175781 45.476562 65.316406 45.964844 C 65.457031 46.457031 65.355469 46.964844 65.609375 47.441406 C 65.898438 47.992188 66.300781 48.15625 66.015625 48.824219 C 65.902344 49.085938 65.757812 49.304688 65.769531 49.605469 C 65.78125 49.824219 65.867188 50.046875 65.863281 50.292969 C 65.859375 50.867188 65.957031 51.398438 65.964844 51.972656 C 65.96875 52.269531 65.953125 52.535156 66.019531 52.820312 C 66.066406 53.011719 66.308594 53.34375 66.074219 53.53125 C 65.878906 53.679688 65.589844 53.460938 65.324219 53.601562 C 65.109375 53.714844 64.929688 53.9375 64.792969 54.125 C 64.484375 54.546875 64.550781 55.027344 64.324219 55.46875 C 63.597656 55.664062 63.1875 55.953125 62.917969 56.6875 C 62.652344 57.410156 62.488281 58.1875 62.292969 58.925781 C 62.105469 59.65625 61.839844 60.378906 61.855469 61.148438 C 61.863281 61.660156 62.203125 62.464844 62.800781 62.515625 C 63.121094 63.847656 62.648438 65.667969 63.789062 66.738281 C 64.800781 67.6875 66.617188 67.148438 67.757812 67.921875 C 67.496094 68.578125 67.492188 69.300781 67.296875 69.976562 C 67.101562 70.664062 66.890625 71.332031 66.640625 71.996094 C 66.398438 72.644531 66.539062 73.445312 66.625 74.113281 C 66.667969 74.441406 66.785156 74.710938 66.917969 75.027344 C 67.03125 75.300781 67.304688 75.585938 67.539062 75.75 C 67.28125 76.945312 66.71875 78.105469 66.625 79.316406 C 66.574219 79.964844 66.398438 80.59375 66.308594 81.242188 C 66.222656 81.867188 66.105469 82.496094 65.96875 83.113281 C 65.824219 83.773438 65.496094 84.238281 65.902344 84.847656 C 66.253906 85.371094 66.25 85.855469 66.25 86.484375 C 66.25 87.144531 66.089844 87.792969 66.164062 88.449219 C 66.242188 89.121094 66.265625 89.800781 66.359375 90.472656 C 66.480469 91.320312 66.742188 91.945312 67.179688 92.671875 C 67.554688 93.304688 67.542969 93.949219 67.625 94.652344 C 67.773438 95.953125 67.988281 97.226562 68.128906 98.523438 C 68.199219 99.171875 68.207031 99.820312 68.316406 100.464844 C 68.429688 101.109375 68.792969 101.453125 69.058594 102.011719 C 69.347656 102.621094 68.949219 103.160156 69.183594 103.746094 C 69.429688 104.347656 69.902344 104.761719 70.0625 105.421875 C 70.246094 106.179688 70.210938 107.0625 70.253906 107.839844 C 70.308594 108.832031 70.152344 109.851562 70.148438 110.851562 C 70.148438 111.558594 70.082031 112.246094 70.070312 112.953125 C 70.058594 113.574219 69.792969 114.171875 69.785156 114.789062 C 69.777344 115.300781 69.753906 115.8125 69.738281 116.332031 C 69.699219 117.546875 69.890625 118.746094 70.15625 119.925781 C 70.539062 121.613281 70.261719 123.1875 70.34375 124.878906 C 70.425781 126.578125 71.53125 127.542969 72.476562 128.828125 C 73.585938 130.339844 73.628906 132.140625 73.179688 133.90625 C 72.707031 135.78125 71.714844 137.3125 70.3125 138.621094 C 69.011719 139.839844 67.785156 141.019531 67.15625 142.734375 C 66.683594 144.007812 66.347656 145.949219 67.675781 146.847656 C 69.003906 147.742188 70.925781 147.167969 72.132812 146.351562 C 73.574219 145.386719 74.59375 143.925781 75.996094 142.902344 C 77.261719 141.976562 78.730469 141.332031 79.855469 140.222656 C 80.066406 140.011719 80.265625 139.792969 80.464844 139.570312 C 82.136719 140.769531 83.59375 142.070312 84.972656 143.59375 C 86.492188 145.273438 88.339844 147.230469 90.742188 147.457031 C 93.183594 147.6875 94.546875 145.5 94.078125 143.277344 C 93.53125 140.691406 91.234375 139.21875 89.453125 137.496094 C 87.644531 135.742188 86.960938 133.609375 87.546875 131.148438 C 88.101562 128.820312 89.390625 126.757812 89.730469 124.363281 C 90.105469 121.71875 89.796875 119.011719 89.988281 116.351562 C 90.152344 114.023438 90.550781 111.738281 90.554688 109.398438 C 90.558594 106.585938 90.53125 103.832031 91.183594 101.074219 C 91.761719 98.617188 92.746094 96.277344 93.171875 93.78125 C 93.253906 93.296875 93.234375 92.675781 93.441406 92.242188 C 93.625 91.863281 93.863281 91.59375 93.972656 91.164062 C 94.1875 90.339844 94.167969 89.472656 94.164062 88.625 C 94.15625 87.179688 94.132812 85.71875 94.300781 84.277344 C 94.445312 83.007812 94.46875 81.710938 94.089844 80.460938 C 93.898438 79.828125 93.328125 79.480469 93.105469 78.875 C 92.894531 78.308594 92.949219 77.652344 92.855469 77.0625 C 92.769531 76.507812 92.449219 75.652344 93.023438 75.253906 C 93.738281 74.761719 94.15625 75.492188 94.152344 76.117188 C 94.40625 75.949219 94.664062 76.226562 94.980469 76.210938 C 94.558594 76.8125 94.46875 77.265625 94.398438 78.011719 C 94.324219 78.785156 94.558594 79.542969 94.675781 80.296875 C 94.917969 81.839844 93.984375 83.589844 94.601562 85.046875 C 95.292969 86.671875 97.152344 86.261719 97.796875 84.875 C 98.390625 83.605469 98.839844 81.957031 98.601562 80.5625 C 98.421875 79.519531 97.722656 77.34375 97.601562 76.292969 C 97.957031 76.234375 98.089844 76.3125 98.8125 76.042969 C 98.953125 75.089844 98.921875 74.082031 98.921875 73.113281 C 98.917969 72.09375 98.789062 71.269531 99.238281 70.292969 C 99.429688 69.878906 99.703125 69.53125 99.871094 69.09375 C 100.074219 68.5625 100.242188 67.980469 100.378906 67.429688 C 100.566406 66.667969 100.417969 65.792969 100.347656 65.023438 C 100.191406 63.300781 100.082031 61.664062 100.328125 59.933594 " fill-opacity="1" fill-rule="nonzero"/></g></svg>