<svg xmlns="http://www.w3.org/2000/svg" xmlns:xlink="http://www.w3.org/1999/xlink" width="200" zoomAndPan="magnify" viewBox="0 0 150 149.999998" height="200" preserveAspectRatio="xMidYMid meet" version="1.0"><defs><clipPath id="522088f340"><path d="M 47 37.273438 L 97 37.273438 L 97 62 L 47 62 Z M 47 37.273438 " clip-rule="nonzero"/></clipPath><clipPath id="fe8c99496b"><path d="M 77 62 L 136.902344 62 L 136.902344 112 L 77 112 Z M 77 62 " clip-rule="nonzero"/></clipPath><clipPath id="bf8e9e2d8d"><path d="M 13.152344 63 L 78 63 L 78 113 L 13.152344 113 Z M 13.152344 63 " clip-rule="nonzero"/></clipPath></defs><rect x="-15" width="180" fill="#ffffff" y="-15" height="179.999997" fill-opacity="1"/><rect x="-15" width="180" fill="#ffffff" y="-15" height="179.999997" fill-opacity="1"/><g clip-path="url(#522088f340)"><path fill="#000000" d="M 59.167969 58.511719 C 60.117188 57.96875 60.476562 56.808594 60.039062 55.828125 L 57.574219 50.390625 L 63.480469 51.085938 C 64.5625 51.214844 65.535156 50.496094 65.769531 49.414062 L 66.949219 43.5625 L 71.316406 47.609375 C 72.113281 48.355469 73.34375 48.355469 74.140625 47.609375 L 78.507812 43.5625 L 79.6875 49.414062 C 79.894531 50.46875 80.894531 51.214844 81.972656 51.085938 L 87.878906 50.390625 L 85.414062 55.828125 C 84.953125 56.808594 85.339844 57.996094 86.289062 58.511719 L 89.574219 60.367188 L 96.945312 59.800781 C 96.871094 59.746094 96.820312 59.671875 96.714844 59.617188 L 89.988281 55.804688 L 93.171875 48.769531 C 93.480469 48.070312 93.402344 47.273438 92.964844 46.679688 C 92.53125 46.0625 91.785156 45.726562 91.039062 45.828125 L 83.359375 46.707031 L 81.84375 39.101562 C 81.691406 38.355469 81.152344 37.761719 80.457031 37.53125 C 79.738281 37.296875 78.96875 37.480469 78.402344 37.96875 L 72.726562 43.226562 L 67.027344 37.96875 C 66.460938 37.453125 65.691406 37.273438 64.972656 37.53125 C 64.253906 37.761719 63.714844 38.355469 63.585938 39.101562 L 62.042969 46.707031 L 54.363281 45.804688 C 53.621094 45.699219 52.875 46.035156 52.4375 46.65625 C 52.003906 47.273438 51.925781 48.070312 52.234375 48.742188 L 55.445312 55.804688 L 48.714844 59.617188 C 48.355469 59.824219 48.074219 60.132812 47.894531 60.496094 L 54.542969 61.113281 Z M 59.167969 58.511719 " fill-opacity="1" fill-rule="nonzero"/></g><g clip-path="url(#fe8c99496b)"><path fill="#000000" d="M 136.675781 96.5 L 136.191406 90.238281 C 136.136719 89.566406 135.882812 88.921875 135.417969 88.433594 L 130.949219 83.304688 L 130.769531 82.839844 C 134.46875 81.605469 135.1875 79.308594 135.1875 77.710938 C 135.1875 76.734375 134.367188 75.960938 133.441406 76.035156 L 128.382812 76.421875 L 124.09375 64.875 C 123.453125 63.125 121.730469 62.015625 119.855469 62.171875 L 85.671875 64.851562 C 83.824219 65.003906 82.28125 66.34375 81.921875 68.175781 L 79.609375 79.621094 C 79.84375 79.851562 80.074219 80.058594 80.277344 80.339844 C 81.253906 81.628906 81.664062 83.304688 81.410156 84.902344 C 81.175781 86.191406 80.457031 88.691406 77.992188 90.546875 L 79.25 92.582031 C 79.585938 93.152344 79.84375 93.769531 80.023438 94.386719 C 80.511719 94.078125 81.074219 93.871094 81.664062 93.820312 C 83.695312 93.667969 85.492188 95.1875 85.644531 97.25 C 85.800781 99.285156 84.285156 101.089844 82.230469 101.242188 C 81.382812 101.320312 80.585938 101.0625 79.945312 100.652344 L 79.6875 103.332031 C 79.535156 104.851562 78.917969 106.191406 78.019531 107.273438 L 78.199219 109.722656 C 78.277344 110.703125 79.125 111.425781 80.074219 111.347656 L 89.035156 110.652344 C 90.011719 110.574219 90.730469 109.722656 90.65625 108.769531 L 90.21875 103.226562 L 121.34375 100.78125 L 121.78125 106.320312 C 121.859375 107.300781 122.707031 108.023438 123.65625 107.945312 L 132.621094 107.25 C 133.597656 107.171875 134.316406 106.320312 134.238281 105.367188 L 133.800781 99.828125 C 135.523438 99.699219 136.804688 98.203125 136.675781 96.5 Z M 83.539062 83.871094 C 84.695312 78.203125 86.441406 69.515625 86.441406 69.515625 L 119.855469 66.914062 C 119.855469 66.914062 122.9375 75.238281 124.941406 80.648438 Z M 128.921875 97.609375 C 126.894531 97.765625 125.09375 96.242188 124.941406 94.183594 C 124.785156 92.144531 126.300781 90.339844 128.355469 90.1875 C 130.386719 90.03125 132.183594 91.554688 132.335938 93.613281 C 132.492188 95.675781 130.976562 97.453125 128.921875 97.609375 Z M 128.921875 97.609375 " fill-opacity="1" fill-rule="nonzero"/></g><g clip-path="url(#bf8e9e2d8d)"><path fill="#000000" d="M 77.324219 84.207031 C 77.480469 83.253906 76.8125 82.351562 75.886719 82.25 L 70.828125 81.785156 L 68.566406 69.671875 C 68.234375 67.839844 66.71875 66.449219 64.871094 66.269531 L 30.738281 63.074219 C 28.886719 62.890625 27.140625 63.972656 26.472656 65.703125 L 22.003906 77.171875 L 16.945312 76.707031 C 16.019531 76.628906 15.199219 77.378906 15.171875 78.355469 C 15.148438 79.953125 15.839844 82.25 19.515625 83.5625 L 19.335938 84.027344 L 14.789062 89.027344 C 14.324219 89.515625 14.070312 90.160156 13.992188 90.832031 L 13.402344 97.09375 C 13.246094 98.796875 14.503906 100.316406 16.199219 100.496094 L 16.226562 100.496094 L 15.710938 106.039062 C 15.609375 106.992188 16.328125 107.867188 17.28125 107.945312 L 26.21875 108.796875 C 27.167969 108.898438 28.039062 108.175781 28.117188 107.222656 L 28.632812 101.683594 L 59.734375 104.621094 L 59.21875 110.160156 C 59.117188 111.117188 59.835938 111.992188 60.785156 112.070312 L 69.722656 112.917969 C 70.671875 113.023438 71.546875 112.300781 71.625 111.347656 L 72.136719 105.804688 C 73.832031 105.960938 75.347656 104.699219 75.527344 102.996094 L 76.117188 96.734375 C 76.167969 96.0625 76.015625 95.394531 75.679688 94.824219 L 72.136719 89.027344 L 72.058594 88.539062 C 75.9375 87.917969 77.042969 85.804688 77.324219 84.207031 Z M 21.132812 98.355469 C 19.101562 98.175781 17.585938 96.347656 17.792969 94.3125 C 17.972656 92.273438 19.796875 90.753906 21.824219 90.960938 C 23.855469 91.140625 25.371094 92.96875 25.164062 95.007812 C 24.984375 97.042969 23.160156 98.539062 21.132812 98.355469 Z M 25.371094 81.421875 C 27.476562 76.035156 30.6875 67.761719 30.6875 67.761719 L 64.046875 70.933594 C 64.046875 70.933594 65.664062 79.644531 66.742188 85.339844 Z M 67.746094 102.738281 C 65.714844 102.558594 64.203125 100.726562 64.40625 98.691406 C 64.585938 96.65625 66.410156 95.136719 68.4375 95.339844 C 70.46875 95.523438 71.984375 97.351562 71.777344 99.386719 C 71.597656 101.449219 69.773438 102.945312 67.746094 102.738281 Z M 67.746094 102.738281 " fill-opacity="1" fill-rule="nonzero"/></g></svg>