<svg xmlns="http://www.w3.org/2000/svg" xmlns:xlink="http://www.w3.org/1999/xlink" width="200" zoomAndPan="magnify" viewBox="0 0 150 149.999998" height="200" preserveAspectRatio="xMidYMid meet" version="1.0"><defs><clipPath id="612d165d99"><path d="M 44 74 L 68 74 L 68 142.5 L 44 142.5 Z M 44 74 " clip-rule="nonzero"/></clipPath><clipPath id="bee2457fb2"><path d="M 22.351562 33 L 67 33 L 67 94 L 22.351562 94 Z M 22.351562 33 " clip-rule="nonzero"/></clipPath><clipPath id="bfa5596353"><path d="M 89 74 L 127.351562 74 L 127.351562 95 L 89 95 Z M 89 74 " clip-rule="nonzero"/></clipPath></defs><rect x="-15" width="180" fill="#ffffff" y="-15" height="179.999997" fill-opacity="1"/><rect x="-15" width="180" fill="#ffffff" y="-15" height="179.999997" fill-opacity="1"/><g clip-path="url(#612d165d99)"><path fill="#000000" d="M 44.867188 83.339844 C 46.367188 86.605469 48.765625 88.101562 51.355469 88.761719 C 52.726562 93.296875 54.4375 100.757812 54.425781 109.710938 C 54.425781 116.855469 53.359375 124.941406 50.242188 133.386719 C 48.949219 136.886719 50.730469 140.773438 54.21875 142.070312 C 54.992188 142.355469 55.78125 142.492188 56.554688 142.492188 C 59.292969 142.492188 61.867188 140.804688 62.875 138.078125 C 66.621094 127.925781 67.894531 118.203125 67.894531 109.710938 C 67.878906 96.171875 64.707031 85.757812 62.996094 81.09375 C 62.710938 78.957031 62.636719 76.730469 62.699219 74.484375 C 55.605469 76.320312 49.753906 79.808594 44.867188 83.339844 Z M 44.867188 83.339844 " fill-opacity="1" fill-rule="nonzero"/></g><path fill="#000000" d="M 63.285156 73.21875 C 63.285156 73.21875 63.285156 73.222656 63.28125 73.222656 C 63.285156 73.222656 63.285156 73.21875 63.285156 73.21875 C 63.574219 73.152344 63.867188 73.332031 63.933594 73.621094 C 64.003906 73.914062 63.824219 74.203125 63.535156 74.273438 C 63.53125 74.273438 63.53125 74.273438 63.53125 74.273438 C 63.53125 74.273438 63.53125 74.273438 63.535156 74.273438 C 65.507812 73.804688 67.578125 73.46875 69.746094 73.292969 C 69.246094 72.984375 68.761719 72.667969 68.289062 72.347656 C 66.558594 72.546875 64.890625 72.839844 63.285156 73.21875 Z M 63.285156 73.21875 " fill-opacity="1" fill-rule="nonzero"/><g clip-path="url(#bee2457fb2)"><path fill="#000000" d="M 26.40625 93.480469 C 27.027344 93.804688 27.699219 93.957031 28.378906 93.957031 C 30.433594 93.941406 32.574219 92.679688 35.082031 90.867188 C 37.582031 89.042969 40.429688 86.621094 43.746094 84.160156 C 43.746094 84.15625 43.746094 84.15625 43.746094 84.15625 C 43.988281 83.980469 44.039062 83.640625 43.859375 83.402344 C 43.683594 83.160156 43.347656 83.109375 43.105469 83.289062 C 39.757812 85.777344 36.898438 88.203125 34.449219 89.992188 C 32 91.785156 29.953125 92.890625 28.378906 92.878906 C 27.855469 92.875 27.375 92.765625 26.90625 92.519531 C 24.355469 91.167969 23.449219 89.015625 23.429688 86.328125 C 23.421875 82.457031 25.496094 77.644531 27.601562 73.84375 C 28.273438 72.628906 28.945312 71.515625 29.546875 70.5625 L 32.070312 71.328125 C 30.941406 72.984375 30.011719 75.125 29.988281 77.050781 C 29.945312 78.761719 30.910156 80.394531 33.089844 80.835938 C 33.410156 80.90625 33.71875 80.9375 34.015625 80.9375 C 34.019531 80.9375 34.027344 80.9375 34.035156 80.9375 C 35.132812 80.941406 36.03125 80.425781 36.660156 79.679688 C 38.042969 78.027344 38.460938 75.320312 38.597656 73.308594 L 40.144531 73.777344 C 41.285156 74.121094 42.488281 73.476562 42.832031 72.332031 L 43.109375 71.40625 C 43.171875 73.953125 43.386719 76.671875 43.734375 79.707031 C 43.921875 80.667969 44.164062 81.53125 44.445312 82.3125 C 49.421875 78.738281 55.429688 75.191406 62.742188 73.359375 C 62.824219 71.65625 62.980469 69.949219 63.1875 68.257812 C 61.535156 66.703125 60.167969 65.15625 59.050781 63.726562 C 54.785156 58.265625 53.222656 53.476562 52.84375 52.140625 C 52.066406 49.226562 53.773438 46.257812 56.640625 45.484375 C 57.097656 45.359375 57.570312 45.296875 58.042969 45.296875 C 60.46875 45.296875 62.605469 46.941406 63.238281 49.292969 C 63.273438 49.410156 63.316406 49.53125 63.375 49.699219 C 63.496094 50.050781 63.714844 50.625 64.050781 51.367188 C 64.40625 52.152344 64.9375 53.191406 65.660156 54.363281 C 65.722656 54.035156 65.789062 53.710938 65.851562 53.394531 C 67.394531 48.015625 65.375 41.574219 60.773438 40.425781 C 58.070312 39.75 54.65625 40.339844 51.746094 42.546875 C 51.820312 41.558594 51.207031 40.613281 50.222656 40.316406 L 49.558594 40.113281 L 50.175781 38.308594 C 50.5625 37.179688 49.960938 35.949219 48.835938 35.5625 L 42.46875 33.371094 C 41.34375 32.980469 40.117188 33.582031 39.730469 34.710938 L 38.980469 36.90625 L 37.5 36.457031 C 36.363281 36.113281 35.160156 36.761719 34.816406 37.902344 L 25.984375 67.222656 C 25.640625 68.367188 26.285156 69.574219 27.421875 69.917969 L 28.480469 70.238281 C 25.949219 74.257812 22.378906 80.878906 22.351562 86.328125 C 22.332031 89.257812 23.46875 91.957031 26.40625 93.480469 Z M 37.539062 72.984375 C 37.472656 74.089844 37.316406 75.441406 36.96875 76.652344 C 36.707031 77.578125 36.328125 78.410156 35.84375 78.976562 C 35.347656 79.539062 34.796875 79.851562 34.011719 79.859375 C 33.800781 79.859375 33.570312 79.832031 33.316406 79.777344 C 31.578125 79.355469 31.105469 78.433594 31.0625 77.050781 C 31.035156 75.390625 32.050781 73.214844 33.160156 71.65625 Z M 37.539062 72.984375 " fill-opacity="1" fill-rule="nonzero"/></g><g clip-path="url(#bfa5596353)"><path fill="#000000" d="M 89.449219 77.527344 L 97.707031 80.609375 L 98.164062 79.371094 C 99.730469 80 103.964844 81.722656 108.890625 84.019531 C 115.117188 86.917969 122.421875 90.734375 126.652344 94.273438 L 127.339844 93.441406 C 119.480469 86.882812 102.070312 79.773438 98.539062 78.359375 L 99.03125 77.035156 L 90.894531 74 C 90.886719 74.339844 90.847656 74.683594 90.773438 75.027344 C 90.558594 75.988281 90.089844 76.839844 89.449219 77.527344 Z M 89.449219 77.527344 " fill-opacity="1" fill-rule="nonzero"/></g><path fill="#000000" d="M 62.355469 50.058594 C 62.289062 49.863281 62.242188 49.71875 62.21875 49.636719 C 62.207031 49.609375 62.203125 49.585938 62.199219 49.574219 C 61.578125 47.269531 59.214844 45.90625 56.917969 46.527344 C 54.621094 47.144531 53.257812 49.519531 53.875 51.824219 C 53.980469 52.203125 55.367188 57.257812 59.902344 63.058594 C 64.414062 68.855469 72.238281 75.347656 84.578125 78.078125 C 84.894531 78.148438 85.207031 78.179688 85.519531 78.179688 C 87.492188 78.179688 89.273438 76.808594 89.722656 74.792969 C 90.238281 72.460938 88.773438 70.152344 86.449219 69.632812 C 76.160156 67.320312 70.25 62.234375 66.679688 57.714844 C 64.910156 55.453125 63.761719 53.332031 63.070312 51.8125 C 62.726562 51.058594 62.492188 50.453125 62.355469 50.058594 Z M 62.355469 50.058594 " fill-opacity="1" fill-rule="nonzero"/><path fill="#000000" d="M 82.789062 21.300781 C 78.6875 15.992188 71.078125 15.023438 65.785156 19.136719 C 64.476562 20.148438 63.4375 21.382812 62.671875 22.738281 C 65.484375 25.59375 70.253906 29.265625 74.46875 32.300781 C 77.476562 34.472656 80.195312 36.320312 81.75 37.359375 C 83.46875 35.648438 84.585938 33.515625 85.058594 31.25 C 83.542969 30.578125 81.925781 29.894531 80.234375 29.261719 C 76.003906 27.667969 72.285156 25.976562 69.71875 24.546875 C 72.257812 25.53125 75.503906 26.578125 79.085938 27.523438 C 83.566406 28.710938 87.667969 29.5 90.597656 29.804688 C 93.238281 30.078125 94.929688 29.957031 95.082031 29.375 C 95.328125 28.429688 91.453125 26.542969 85.773438 24.695312 C 85.351562 24.558594 84.917969 24.421875 84.476562 24.285156 C 84.0625 23.242188 83.507812 22.234375 82.789062 21.300781 Z M 82.789062 21.300781 " fill-opacity="1" fill-rule="nonzero"/><path fill="#000000" d="M 74.375 40.839844 C 73.96875 38.6875 75.605469 35.457031 76 34.71875 C 71.457031 31.519531 65.617188 27.183594 62.160156 23.753906 C 60.382812 27.722656 60.789062 32.515625 63.628906 36.195312 C 66.273438 39.617188 70.371094 41.222656 74.375 40.839844 Z M 74.375 40.839844 " fill-opacity="1" fill-rule="nonzero"/></svg>