<svg xmlns="http://www.w3.org/2000/svg" xmlns:xlink="http://www.w3.org/1999/xlink" width="200" zoomAndPan="magnify" viewBox="0 0 150 149.999998" height="200" preserveAspectRatio="xMidYMid meet" version="1.0"><defs><clipPath id="a2b2721319"><path d="M 30.097656 14.25 L 120.097656 14.25 L 120.097656 142.5 L 30.097656 142.5 Z M 30.097656 14.25 " clip-rule="nonzero"/></clipPath></defs><rect x="-15" width="180" fill="#ffffff" y="-15" height="179.999997" fill-opacity="1"/><rect x="-15" width="180" fill="#ffffff" y="-15" height="179.999997" fill-opacity="1"/><g clip-path="url(#a2b2721319)"><path fill="#000000" d="M 92.339844 27.777344 C 93.898438 27.152344 97.023438 27.328125 97.707031 28.066406 C 95.886719 28.039062 94.105469 28.039062 92.339844 27.777344 Z M 78.636719 95.730469 C 78.839844 96.144531 78.875 96.585938 78.921875 97.027344 C 79.054688 98.300781 79.15625 99.574219 79.328125 100.839844 C 79.550781 102.527344 79.839844 104.207031 80.332031 105.84375 C 80.460938 106.273438 80.59375 106.699219 80.707031 107.132812 C 80.765625 107.347656 80.769531 107.601562 80.527344 107.683594 C 80.347656 107.742188 80.074219 107.753906 79.929688 107.660156 C 79.242188 107.207031 78.628906 106.667969 78.382812 105.847656 C 78.265625 105.460938 78.183594 105.058594 78.132812 104.660156 C 77.898438 102.6875 77.855469 100.707031 77.980469 98.726562 C 78.03125 97.941406 78.097656 97.15625 78.183594 96.371094 C 78.210938 96.117188 78.230469 95.804688 78.636719 95.730469 Z M 71.523438 26.199219 C 68.660156 27.175781 65.945312 28.429688 63.332031 29.894531 C 60.714844 31.363281 58.265625 33.085938 55.933594 34.964844 C 53.605469 36.839844 51.46875 38.917969 49.339844 41.023438 C 49.292969 40.890625 49.273438 40.78125 49.316406 40.703125 C 49.523438 40.332031 49.722656 39.949219 49.96875 39.605469 C 50.976562 38.191406 52.191406 36.96875 53.492188 35.816406 C 55.425781 34.09375 57.515625 32.566406 59.695312 31.175781 C 61.386719 30.101562 63.164062 29.148438 64.941406 28.214844 C 66.492188 27.398438 68.113281 26.71875 69.832031 26.316406 C 70.386719 26.183594 70.941406 26.042969 71.523438 26.199219 Z M 103.972656 87.636719 C 104.027344 87.644531 104.082031 87.65625 104.132812 87.664062 C 104.117188 87.867188 104.121094 88.074219 104.082031 88.273438 C 103.828125 89.503906 103.636719 90.75 103.285156 91.953125 C 102.589844 94.324219 101.851562 96.683594 101.046875 99.015625 C 100.414062 100.847656 99.671875 102.644531 98.945312 104.441406 C 98.269531 106.125 97.496094 107.761719 96.558594 109.316406 C 96.488281 109.425781 96.367188 109.507812 96.167969 109.707031 C 96.214844 109.441406 96.222656 109.320312 96.261719 109.203125 C 96.835938 107.351562 97.347656 105.480469 98.003906 103.660156 C 99.046875 100.777344 100.203125 97.9375 101.273438 95.066406 C 102.136719 92.75 102.941406 90.417969 103.777344 88.09375 C 103.832031 87.9375 103.90625 87.789062 103.972656 87.636719 Z M 66.144531 61.992188 C 66.210938 61.878906 66.230469 61.789062 66.289062 61.75 C 66.574219 61.5625 66.863281 61.382812 67.164062 61.21875 C 68.34375 60.570312 69.5 59.867188 70.71875 59.308594 C 72.230469 58.609375 73.796875 58.027344 75.34375 57.40625 C 77.464844 56.5625 79.582031 55.695312 81.722656 54.894531 C 85.644531 53.433594 89.421875 51.683594 93.015625 49.550781 C 93.421875 49.308594 93.824219 49.066406 94.230469 48.832031 C 94.441406 48.710938 94.6875 48.609375 94.851562 48.875 C 95.003906 49.128906 94.785156 49.253906 94.605469 49.378906 C 94.1875 49.671875 93.773438 49.976562 93.351562 50.269531 C 91.667969 51.453125 89.902344 52.496094 88.066406 53.421875 C 84.71875 55.113281 81.183594 56.363281 77.6875 57.695312 C 75.347656 58.585938 73.007812 59.476562 70.675781 60.386719 C 69.582031 60.816406 68.511719 61.308594 67.417969 61.75 C 67.039062 61.902344 66.644531 62.074219 66.144531 61.992188 Z M 46.957031 80.613281 C 46.917969 81.53125 46.863281 82.355469 46.859375 83.183594 C 46.859375 84.128906 47.101562 85.039062 47.398438 85.929688 C 47.460938 86.121094 47.585938 86.332031 47.746094 86.441406 C 47.996094 86.613281 48.328125 86.402344 48.460938 86.015625 C 48.691406 85.351562 48.902344 84.683594 49.140625 84.023438 C 49.796875 82.21875 50.828125 80.632812 52.09375 79.195312 C 53.570312 77.523438 55.25 76.066406 57.148438 74.875 C 58.683594 73.90625 60.246094 72.972656 61.789062 72.011719 C 62.332031 71.675781 62.832031 71.257812 63.480469 71.132812 C 63.683594 71.09375 63.882812 71.066406 64.160156 71.144531 C 64.019531 71.347656 63.886719 71.558594 63.734375 71.753906 C 61.945312 74.023438 60.378906 76.4375 59.011719 78.980469 C 57.546875 81.710938 56.347656 84.554688 55.441406 87.515625 C 54.757812 89.738281 54.21875 91.996094 53.863281 94.289062 C 53.332031 97.6875 53.078125 101.105469 53.195312 104.542969 C 53.277344 106.972656 53.511719 109.390625 53.984375 111.777344 C 54.367188 113.695312 54.761719 115.617188 55.261719 117.507812 C 55.617188 118.835938 56.152344 120.121094 56.625 121.417969 C 56.859375 122.046875 57.136719 122.660156 57.410156 123.320312 C 57.878906 123.011719 57.847656 122.601562 57.796875 122.210938 C 57.703125 121.492188 57.574219 120.78125 57.472656 120.0625 C 57.230469 118.378906 56.96875 116.695312 56.769531 115.003906 C 56.496094 112.738281 56.335938 110.46875 56.328125 108.183594 C 56.3125 104.9375 56.492188 101.707031 56.980469 98.5 C 57.351562 96.058594 57.878906 93.648438 58.597656 91.277344 C 59.648438 87.8125 61.128906 84.546875 63.0625 81.480469 C 64.835938 78.667969 66.988281 76.160156 69.410156 73.878906 C 71.589844 71.824219 73.886719 69.90625 76.292969 68.117188 C 79.328125 65.855469 82.402344 63.640625 85.695312 61.746094 C 88.253906 60.277344 90.855469 58.886719 93.421875 57.429688 C 95.023438 56.523438 96.667969 55.691406 98.140625 54.570312 C 99.699219 53.386719 100.871094 51.9375 101.421875 50.042969 C 101.445312 49.957031 101.445312 49.859375 101.496094 49.796875 C 101.582031 49.691406 101.722656 49.507812 101.789062 49.527344 C 101.925781 49.566406 102.085938 49.703125 102.125 49.832031 C 102.410156 50.78125 102.507812 51.757812 102.363281 52.742188 C 102.121094 54.34375 101.832031 55.9375 101.59375 57.539062 C 101.3125 59.4375 101.050781 61.339844 101.367188 63.265625 C 101.511719 64.140625 101.84375 64.941406 102.214844 65.734375 C 102.671875 66.695312 103.132812 67.65625 103.566406 68.628906 C 104.21875 70.109375 103.828125 70.949219 102.292969 71.503906 C 101.550781 71.773438 100.816406 72.066406 100.089844 72.382812 C 99.484375 72.648438 99.320312 72.960938 99.441406 73.605469 C 99.515625 74 99.664062 74.382812 99.800781 74.765625 C 100.257812 76.027344 100.09375 76.472656 98.910156 77.09375 C 98.648438 77.230469 98.367188 77.347656 98.089844 77.460938 C 97.367188 77.753906 97.210938 78.144531 97.523438 78.871094 C 97.660156 79.183594 97.804688 79.5 97.886719 79.824219 C 98.019531 80.34375 97.925781 80.523438 97.410156 80.695312 C 97.003906 80.828125 96.578125 80.917969 96.15625 80.976562 C 95.1875 81.117188 94.589844 81.625 94.429688 82.597656 C 94.363281 83.015625 94.316406 83.441406 94.292969 83.867188 C 94.238281 84.890625 94.089844 85.898438 93.757812 86.875 C 93.460938 87.761719 92.871094 88.355469 91.980469 88.671875 C 91.023438 89.011719 90.050781 89.058594 89.0625 88.882812 C 85.21875 88.195312 81.550781 86.976562 78.0625 85.230469 C 77.664062 85.03125 77.238281 84.871094 76.808594 84.742188 C 75.992188 84.492188 75.558594 84.714844 75.222656 85.488281 C 74.863281 86.304688 74.789062 87.179688 74.699219 88.046875 C 74.523438 89.761719 74.355469 91.480469 74.226562 93.203125 C 74.042969 95.691406 73.976562 98.183594 74.257812 100.667969 C 74.566406 103.394531 75.449219 105.890625 77.390625 107.925781 C 78.375 108.960938 79.546875 109.6875 80.976562 109.902344 C 81.757812 110.023438 82.265625 110.429688 82.59375 111.105469 C 82.96875 111.871094 83.320312 112.644531 83.699219 113.40625 C 85.066406 116.167969 86.746094 118.722656 88.757812 121.0625 C 90.0625 122.582031 91.527344 123.90625 93.257812 124.929688 C 93.550781 125.101562 93.832031 125.300781 94.136719 125.453125 C 94.6875 125.722656 94.945312 126.191406 95.09375 126.738281 C 95.621094 128.667969 96.277344 130.550781 97.097656 132.375 C 98.25 134.941406 99.644531 137.375 101.511719 139.496094 C 102.394531 140.5 103.421875 141.382812 104.390625 142.308594 C 104.507812 142.417969 104.691406 142.5 104.847656 142.503906 C 104.992188 142.507812 105.1875 142.421875 105.273438 142.308594 C 105.335938 142.226562 105.277344 142.035156 105.242188 141.902344 C 105.21875 141.824219 105.140625 141.765625 105.082031 141.703125 C 103.914062 140.507812 102.898438 139.203125 102.0625 137.757812 C 101.5625 136.894531 100.972656 136.078125 100.476562 135.210938 C 100.160156 134.660156 99.941406 134.050781 99.679688 133.46875 C 98.867188 131.648438 98.332031 129.75 98.085938 127.773438 C 97.867188 126.019531 97.988281 124.285156 98.351562 122.5625 C 98.878906 120.074219 99.804688 117.714844 100.851562 115.398438 C 102.324219 112.136719 104.117188 109.035156 105.808594 105.882812 C 107.585938 102.578125 109.34375 99.261719 110.84375 95.820312 C 112.140625 92.847656 113.25 89.808594 114.03125 86.660156 C 115.082031 82.441406 115.351562 78.160156 114.960938 73.839844 C 114.765625 71.691406 114.40625 69.566406 113.8125 67.492188 C 113.175781 65.257812 112.351562 63.089844 111.273438 61.023438 C 111.054688 60.609375 110.914062 60.160156 110.761719 59.71875 C 110.722656 59.613281 110.769531 59.476562 110.789062 59.222656 C 111.320312 59.648438 111.683594 60.082031 111.933594 60.585938 C 112.597656 61.921875 113.257812 63.261719 113.855469 64.628906 C 114.667969 66.484375 115.28125 68.414062 115.785156 70.375 C 116.261719 72.214844 116.589844 74.078125 116.808594 75.964844 C 117.085938 78.386719 117.183594 80.816406 116.90625 83.242188 C 116.722656 84.867188 116.460938 86.492188 116.105469 88.09375 C 115.628906 90.230469 115.082031 92.355469 114.472656 94.464844 C 113.851562 96.613281 112.945312 98.664062 111.96875 100.683594 C 111.292969 102.082031 110.566406 103.457031 109.855469 104.84375 C 109.710938 105.132812 109.636719 105.421875 109.761719 105.863281 C 110.070312 105.507812 110.328125 105.230469 110.558594 104.9375 C 111.648438 103.566406 112.589844 102.097656 113.453125 100.570312 C 114.527344 98.671875 115.503906 96.730469 116.335938 94.722656 C 117.417969 92.121094 118.332031 89.464844 118.867188 86.691406 C 119.179688 85.082031 119.527344 83.476562 119.722656 81.851562 C 119.929688 80.121094 120.042969 78.367188 120.066406 76.625 C 120.089844 74.773438 120.039062 72.914062 119.878906 71.070312 C 119.574219 67.492188 118.828125 63.992188 117.847656 60.539062 C 116.910156 57.234375 115.707031 54.027344 114.289062 50.894531 C 112.847656 47.707031 111.191406 44.632812 109.402344 41.621094 C 108.507812 40.117188 107.574219 38.640625 106.742188 37.101562 C 106.40625 36.480469 106.199219 35.753906 106.101562 35.046875 C 105.851562 33.226562 105.4375 31.457031 104.8125 29.722656 C 104.371094 28.503906 103.773438 27.390625 102.941406 26.394531 C 102.148438 25.445312 101.164062 24.75 100.070312 24.171875 C 98.367188 23.277344 96.675781 22.355469 94.992188 21.417969 C 92.351562 19.945312 89.625 18.664062 86.804688 17.574219 C 84.382812 16.636719 81.902344 15.867188 79.363281 15.328125 C 75.847656 14.585938 72.289062 14.253906 68.683594 14.449219 C 65.664062 14.613281 62.707031 15.078125 59.816406 15.921875 C 57.367188 16.636719 55.011719 17.609375 52.738281 18.777344 C 50.996094 19.667969 49.355469 20.699219 47.839844 21.929688 C 45.882812 23.519531 44.199219 25.355469 42.699219 27.371094 C 40.988281 29.679688 39.570312 32.15625 38.503906 34.816406 C 37.492188 37.335938 36.78125 39.945312 36.53125 42.664062 C 36.449219 43.53125 36.394531 44.402344 36.296875 45.273438 C 36.160156 46.503906 35.738281 47.613281 34.902344 48.574219 C 32.632812 51.199219 32.070312 54.28125 32.570312 57.609375 C 32.847656 59.433594 33.511719 61.136719 34.316406 62.800781 C 35.730469 65.714844 37.59375 68.328125 39.605469 70.855469 C 40.230469 71.636719 40.855469 72.429688 41.378906 73.28125 C 42.679688 75.378906 42.628906 77.539062 41.585938 79.738281 C 40.839844 81.3125 39.761719 82.621094 38.523438 83.816406 C 36.5625 85.710938 34.410156 87.351562 31.933594 88.542969 C 31.488281 88.753906 31.042969 88.960938 30.589844 89.152344 C 30.359375 89.25 30.117188 89.324219 30.210938 89.636719 C 30.3125 89.976562 30.589844 89.910156 30.847656 89.84375 C 31.59375 89.660156 32.347656 89.488281 33.089844 89.277344 C 35.554688 88.585938 37.898438 87.609375 40.109375 86.324219 C 42.074219 85.183594 43.804688 83.773438 45.308594 82.078125 C 45.703125 81.628906 46.160156 81.238281 46.59375 80.828125 C 46.683594 80.746094 46.804688 80.699219 46.957031 80.613281 " fill-opacity="1" fill-rule="nonzero"/></g></svg>