<svg xmlns="http://www.w3.org/2000/svg" xmlns:xlink="http://www.w3.org/1999/xlink" width="200" zoomAndPan="magnify" viewBox="0 0 150 149.999998" height="200" preserveAspectRatio="xMidYMid meet" version="1.0"><defs><clipPath id="caf7dae12f"><path d="M 53.4375 45 L 96.9375 45 L 96.9375 105 L 53.4375 105 Z M 53.4375 45 " clip-rule="nonzero"/></clipPath><clipPath id="73d3b82c15"><path d="M 53.4375 67 L 96.9375 67 L 96.9375 94 L 53.4375 94 Z M 53.4375 67 " clip-rule="nonzero"/></clipPath><clipPath id="6cc9bccc10"><path d="M 53.4375 53 L 96.9375 53 L 96.9375 105 L 53.4375 105 Z M 53.4375 53 " clip-rule="nonzero"/></clipPath><clipPath id="79cf33d322"><path d="M 53.4375 52 L 96.9375 52 L 96.9375 95 L 53.4375 95 Z M 53.4375 52 " clip-rule="nonzero"/></clipPath></defs><rect x="-15" width="180" fill="#ffffff" y="-15" height="179.999997" fill-opacity="1"/><rect x="-15" width="180" fill="#ffffff" y="-15" height="179.999997" fill-opacity="1"/><rect x="-15" width="180" fill="#ffffff" y="-15" height="179.999997" fill-opacity="1"/><g clip-path="url(#caf7dae12f)"><path fill="#000000" d="M 96.945312 90.144531 C 96.945312 90.921875 96.734375 91.621094 96.207031 92.183594 C 95.335938 93.117188 94.480469 94.082031 93.515625 94.917969 C 90.179688 97.816406 86.464844 100.191406 82.621094 102.359375 C 81.09375 103.21875 79.484375 103.929688 77.929688 104.734375 C 77.457031 104.980469 76.984375 105 76.496094 104.902344 C 69.308594 103.453125 62.441406 101.144531 56.125 97.378906 C 55.355469 96.921875 54.664062 96.339844 53.925781 95.832031 C 53.574219 95.589844 53.453125 95.296875 53.453125 94.863281 C 53.457031 89.417969 53.433594 83.976562 53.441406 78.527344 C 53.441406 72.382812 53.46875 66.234375 53.484375 60.089844 C 53.484375 59.792969 53.476562 59.496094 53.476562 59.195312 C 53.472656 58.246094 53.828125 57.457031 54.59375 56.871094 C 56.003906 55.796875 57.464844 54.792969 59.074219 53.96875 C 59.113281 52.898438 59.636719 52.007812 60.277344 51.164062 C 62.496094 48.242188 65.492188 46.558594 69.03125 45.742188 C 71 45.285156 73.007812 45.035156 75.027344 45.117188 C 79.519531 45.300781 83.792969 46.335938 87.742188 48.535156 C 88.855469 49.152344 89.847656 49.921875 90.730469 50.835938 C 91.261719 51.382812 91.679688 51.984375 91.800781 52.757812 C 91.84375 53.050781 92 53.234375 92.28125 53.375 C 93.023438 53.746094 93.773438 54.121094 94.488281 54.550781 C 95.105469 54.921875 95.695312 55.359375 96.277344 55.789062 C 96.660156 56.078125 96.800781 56.511719 96.832031 56.964844 C 96.875 57.625 96.910156 58.285156 96.914062 58.941406 C 96.925781 69.34375 96.933594 79.742188 96.945312 90.144531 Z M 96.945312 90.144531 " fill-opacity="1" fill-rule="nonzero"/></g><path fill="#100f0d" d="M 61.210938 53.984375 C 61.214844 53.917969 61.21875 53.835938 61.226562 53.722656 C 61.347656 53.789062 61.476562 53.816406 61.554688 53.898438 C 63.070312 55.445312 64.960938 56.371094 66.96875 57.097656 C 69.222656 57.914062 71.558594 58.285156 73.949219 58.390625 C 76.839844 58.523438 79.683594 58.269531 82.472656 57.480469 C 84.757812 56.835938 86.875 55.828125 88.84375 54.523438 C 89.335938 54.199219 89.738281 53.738281 90.183594 53.34375 C 90.273438 53.269531 90.371094 53.207031 90.5 53.117188 C 90.523438 53.167969 90.539062 53.21875 90.546875 53.265625 C 90.773438 53.027344 90.945312 52.75 91.089844 52.460938 C 90.84375 51.878906 90.445312 51.367188 89.929688 50.902344 C 89.132812 50.183594 88.289062 49.535156 87.347656 49.015625 C 83.542969 46.925781 79.429688 45.929688 75.109375 45.734375 C 73.042969 45.640625 71 45.894531 68.984375 46.367188 C 65.71875 47.140625 62.9375 48.699219 60.828125 51.355469 C 60.515625 51.746094 60.261719 52.144531 60.070312 52.574219 C 60.332031 53.117188 60.714844 53.597656 61.210938 53.984375 Z M 86.335938 51.566406 C 86.566406 51.5625 86.746094 51.671875 86.785156 52.039062 C 86.703125 52.109375 86.582031 52.289062 86.441406 52.3125 C 86.214844 52.34375 86.039062 52.195312 86.011719 51.945312 C 85.988281 51.710938 86.113281 51.566406 86.335938 51.566406 Z M 80.894531 48.335938 C 81.042969 48.117188 81.222656 48.152344 81.738281 48.511719 C 81.453125 48.90625 81.203125 49.007812 80.96875 48.832031 C 80.785156 48.695312 80.769531 48.515625 80.894531 48.335938 Z M 80.296875 55.558594 C 80.316406 55.28125 80.5625 55.058594 80.859375 55.0625 C 81.109375 55.066406 81.261719 55.171875 81.265625 55.339844 C 81.265625 55.75 80.996094 56.039062 80.714844 56.03125 C 80.472656 56.019531 80.28125 55.800781 80.296875 55.558594 Z M 75.746094 51.632812 C 75.769531 51.488281 75.945312 51.316406 76.09375 51.253906 C 76.28125 51.179688 76.578125 51.453125 76.589844 51.761719 C 76.472656 51.832031 76.316406 51.992188 76.144531 52.015625 C 75.917969 52.042969 75.703125 51.882812 75.746094 51.632812 Z M 71.242188 48.109375 C 71.308594 47.902344 71.554688 47.800781 71.828125 47.898438 C 72 47.960938 72.15625 48.066406 72.363281 48.175781 C 72.226562 48.566406 71.960938 48.621094 71.679688 48.605469 C 71.375 48.589844 71.167969 48.332031 71.242188 48.109375 Z M 70.179688 54.90625 C 70.441406 54.914062 70.730469 55.164062 70.660156 55.375 C 70.605469 55.539062 70.421875 55.664062 70.347656 55.75 C 70.003906 55.742188 69.800781 55.535156 69.792969 55.300781 C 69.789062 55.058594 69.945312 54.898438 70.179688 54.90625 Z M 64.453125 51.320312 C 64.480469 51.066406 64.757812 50.882812 65.078125 50.90625 C 65.394531 50.929688 65.597656 51.117188 65.582031 51.359375 C 65.558594 51.632812 65.234375 51.859375 64.925781 51.820312 C 64.632812 51.785156 64.425781 51.5625 64.453125 51.320312 Z M 64.453125 51.320312 " fill-opacity="1" fill-rule="nonzero"/><g clip-path="url(#73d3b82c15)"><path fill="#ffffff" d="M 77.230469 93.785156 C 75.519531 93.457031 73.894531 93.195312 72.292969 92.824219 C 67.191406 91.640625 62.25 89.992188 57.472656 87.859375 C 56.359375 87.363281 55.296875 86.765625 54.207031 86.222656 C 54.003906 86.125 53.914062 85.996094 53.929688 85.777344 C 53.9375 85.671875 53.929688 85.566406 53.929688 85.460938 C 53.921875 80.402344 53.914062 75.34375 53.90625 70.285156 C 53.90625 70.074219 53.90625 69.863281 53.90625 69.554688 C 61.285156 73.433594 69.203125 75.449219 77.230469 77.128906 C 77.230469 82.683594 77.230469 88.160156 77.230469 93.785156 Z M 77.738281 77.109375 C 77.738281 82.613281 77.738281 88.109375 77.738281 93.6875 C 78.160156 93.5 78.511719 93.347656 78.859375 93.195312 C 81.917969 91.847656 84.859375 90.28125 87.699219 88.515625 C 90.710938 86.644531 93.457031 84.441406 96.015625 82.003906 C 96.324219 81.707031 96.445312 81.425781 96.445312 81.011719 C 96.429688 76.695312 96.4375 72.375 96.4375 68.058594 C 96.4375 67.875 96.421875 67.691406 96.410156 67.417969 C 90.710938 71.824219 84.460938 74.921875 77.738281 77.109375 Z M 77.738281 77.109375 " fill-opacity="1" fill-rule="nonzero"/></g><g clip-path="url(#6cc9bccc10)"><path fill="#ffffff" d="M 77.644531 75.15625 C 77.644531 73.066406 77.644531 71.101562 77.644531 69.132812 C 77.605469 69.121094 77.558594 69.105469 77.515625 69.09375 C 77.449219 69.171875 77.332031 69.242188 77.320312 69.328125 C 77.28125 69.535156 77.285156 69.75 77.285156 69.960938 C 77.28125 71.429688 77.273438 72.894531 77.273438 74.363281 C 77.273438 74.574219 77.273438 74.78125 77.273438 75.085938 C 69.050781 73.761719 61.261719 71.382812 53.925781 67.53125 C 53.914062 67.296875 53.898438 67.085938 53.894531 66.875 C 53.878906 64.578125 53.84375 62.28125 53.871094 59.984375 C 53.875 59.402344 54.042969 58.816406 54.210938 58.25 C 54.351562 57.753906 54.671875 57.359375 55.136719 57.070312 C 56.167969 56.425781 57.179688 55.746094 58.203125 55.085938 C 58.433594 54.9375 58.6875 54.816406 59.027344 54.625 C 59.058594 54.910156 59.101562 55.128906 59.101562 55.347656 C 59.101562 56.882812 59.832031 58.003906 61.058594 58.886719 C 63.082031 60.34375 65.328125 61.304688 67.734375 61.921875 C 70.703125 62.6875 73.726562 62.953125 76.785156 62.863281 C 79.621094 62.777344 82.421875 62.429688 85.140625 61.566406 C 86.640625 61.09375 88.039062 60.417969 89.332031 59.519531 C 90.078125 59 90.71875 58.378906 91.28125 57.679688 C 91.667969 57.203125 91.863281 56.640625 91.917969 56.035156 C 91.984375 55.339844 92.035156 54.640625 92.097656 53.898438 C 92.222656 53.949219 92.359375 53.988281 92.476562 54.058594 C 93.5625 54.699219 94.636719 55.355469 95.726562 55.992188 C 96.074219 56.191406 96.226562 56.488281 96.3125 56.855469 C 96.457031 57.480469 96.496094 58.109375 96.488281 58.75 C 96.453125 60.707031 96.445312 62.660156 96.453125 64.617188 C 96.453125 65.015625 96.359375 65.292969 96.023438 65.539062 C 95.039062 66.257812 94.117188 67.054688 93.105469 67.730469 C 88.917969 70.542969 84.4375 72.808594 79.671875 74.492188 C 79.050781 74.714844 78.421875 74.90625 77.644531 75.15625 Z M 55.410156 59.128906 C 55.386719 59.375 55.597656 59.476562 55.765625 59.578125 C 56.441406 59.984375 57.105469 60.417969 57.8125 60.769531 C 60.855469 62.292969 64.027344 63.519531 67.25 64.609375 C 70.355469 65.65625 73.496094 66.570312 76.738281 67.09375 C 76.9375 67.128906 77.140625 67.21875 77.328125 67.066406 C 77.3125 66.996094 77.308594 66.925781 77.292969 66.925781 C 69.71875 65.1875 62.414062 62.710938 55.550781 59.054688 C 55.527344 59.042969 55.476562 59.089844 55.410156 59.128906 Z M 79.242188 66.21875 C 79.734375 66.410156 79.734375 66.414062 80.546875 66.089844 C 83.472656 64.921875 86.25 63.453125 88.988281 61.914062 C 90.835938 60.878906 92.636719 59.773438 94.328125 58.496094 C 94.71875 58.203125 95.0625 57.851562 95.414062 57.503906 C 95.476562 57.445312 95.460938 57.304688 95.480469 57.199219 C 95.445312 57.175781 95.410156 57.144531 95.371094 57.117188 C 93.792969 58.457031 92.074219 59.59375 90.289062 60.625 C 88.496094 61.664062 86.6875 62.675781 84.835938 63.609375 C 83.003906 64.535156 81.109375 65.355469 79.242188 66.21875 Z M 53.925781 88.398438 C 53.925781 88.640625 53.929688 88.867188 53.925781 89.09375 C 53.90625 90.984375 53.898438 92.875 53.863281 94.765625 C 53.855469 95.070312 53.988281 95.222656 54.203125 95.390625 C 55.507812 96.40625 56.914062 97.253906 58.371094 98.027344 C 62.921875 100.445312 67.722656 102.246094 72.710938 103.542969 C 73.992188 103.878906 75.289062 104.164062 76.582031 104.457031 C 76.789062 104.503906 77.019531 104.460938 77.234375 104.460938 C 77.234375 101.398438 77.234375 98.425781 77.234375 95.414062 C 68.996094 94.503906 61.355469 91.925781 53.925781 88.398438 Z M 77.738281 95.289062 C 77.613281 96.648438 77.644531 103.6875 77.78125 104.152344 C 78 104.058594 78.214844 103.976562 78.425781 103.878906 C 82.316406 102.0625 85.949219 99.816406 89.46875 97.382812 C 91.15625 96.214844 92.808594 94.988281 94.273438 93.550781 C 94.984375 92.847656 95.613281 92.066406 96.25 91.296875 C 96.382812 91.136719 96.441406 90.871094 96.441406 90.652344 C 96.449219 88.613281 96.4375 86.574219 96.429688 84.53125 C 96.429688 84.320312 96.429688 84.113281 96.429688 83.78125 C 90.929688 88.953125 84.59375 92.554688 77.738281 95.289062 Z M 77.738281 95.289062 " fill-opacity="1" fill-rule="nonzero"/></g><g clip-path="url(#79cf33d322)"><path fill="#100f0d" d="M 91.386719 53.914062 C 91.386719 53.386719 91.28125 52.90625 91.089844 52.464844 C 90.945312 52.757812 90.769531 53.03125 90.546875 53.269531 C 90.601562 53.554688 90.429688 53.738281 90.273438 53.890625 C 89.875 54.269531 89.46875 54.660156 89.007812 54.960938 C 86.761719 56.441406 84.339844 57.546875 81.699219 58.152344 C 77.125 59.199219 72.5625 59.195312 68.027344 57.957031 C 65.949219 57.390625 63.984375 56.546875 62.269531 55.214844 C 61.9375 54.953125 61.640625 54.640625 61.347656 54.335938 C 61.226562 54.207031 61.203125 54.160156 61.210938 53.984375 C 60.714844 53.597656 60.328125 53.117188 60.066406 52.574219 C 59.84375 53.066406 59.703125 53.59375 59.660156 54.183594 C 59.503906 56.332031 59.953125 57.378906 61.75 58.609375 C 61.769531 58.621094 61.789062 58.632812 61.804688 58.644531 C 62.960938 59.425781 64.191406 60.066406 65.5 60.5625 C 68.851562 61.832031 72.347656 62.242188 76.363281 62.316406 C 77.234375 62.253906 78.558594 62.175781 79.886719 62.0625 C 80.546875 62.007812 81.207031 61.910156 81.859375 61.792969 C 83.695312 61.457031 85.496094 60.988281 87.183594 60.160156 C 88.539062 59.492188 89.789062 58.679688 90.769531 57.515625 C 90.980469 57.261719 91.230469 56.953125 91.265625 56.652344 C 91.359375 55.742188 91.394531 54.824219 91.386719 53.914062 Z M 61.21875 57.535156 C 60.882812 57.066406 60.78125 55.945312 61.027344 55.386719 C 61.273438 55.378906 61.277344 55.558594 61.300781 55.726562 C 61.472656 56.773438 61.453125 57.214844 61.21875 57.535156 Z M 62.921875 56.636719 C 63.300781 57.351562 63.21875 58.019531 63.367188 58.71875 C 62.804688 58.488281 62.554688 57.304688 62.921875 56.636719 Z M 65.21875 59.789062 C 64.707031 59.296875 64.539062 58.34375 64.867188 57.851562 C 65.257812 58.3125 65.226562 58.878906 65.339844 59.394531 C 65.363281 59.503906 65.269531 59.636719 65.21875 59.789062 Z M 67.019531 60.234375 C 66.578125 59.789062 66.464844 58.71875 66.820312 58.273438 C 67.183594 58.855469 67.289062 59.851562 67.019531 60.234375 Z M 69.117188 60.757812 C 68.785156 60.8125 68.773438 60.625 68.742188 60.460938 C 68.621094 59.855469 68.710938 59.242188 69.027344 58.847656 C 69.230469 59.53125 69.152344 60.152344 69.117188 60.757812 Z M 70.765625 61.066406 C 70.671875 60.457031 70.464844 59.863281 70.691406 59.210938 C 71.109375 59.628906 71.175781 60.734375 70.765625 61.066406 Z M 73.097656 61.429688 C 72.582031 61.179688 72.457031 60.222656 72.867188 59.621094 C 73.113281 60.234375 73.152344 60.808594 73.097656 61.429688 Z M 75.203125 61.40625 C 74.882812 60.851562 74.917969 60.371094 74.945312 59.847656 C 75.363281 60.089844 75.476562 60.734375 75.203125 61.40625 Z M 76.953125 61.300781 C 76.800781 60.804688 76.679688 60.351562 76.921875 59.769531 C 77.335938 60.34375 77.332031 60.890625 76.953125 61.300781 Z M 79.058594 61.328125 C 78.644531 60.859375 78.59375 60.078125 78.972656 59.488281 C 79.25 60.160156 79.214844 60.707031 79.058594 61.328125 Z M 81.269531 60.914062 C 80.910156 60.503906 80.917969 59.96875 81.351562 59.296875 C 81.511719 59.925781 81.523438 60.410156 81.269531 60.914062 Z M 83.125 60.816406 C 82.703125 60.320312 82.695312 59.554688 83.117188 59.007812 C 83.261719 59.589844 83.414062 60.175781 83.125 60.816406 Z M 85.128906 60.128906 C 84.894531 59.429688 84.808594 58.871094 85.078125 58.246094 C 85.496094 58.667969 85.546875 59.507812 85.128906 60.128906 Z M 87.53125 59.023438 C 87.09375 58.589844 87.019531 57.757812 87.371094 56.988281 C 87.621094 57.628906 87.777344 58.28125 87.53125 59.023438 Z M 89.25 57.707031 C 88.960938 57.265625 88.964844 56.617188 89.253906 56.191406 C 89.5625 56.746094 89.558594 57.375 89.25 57.707031 Z M 90.585938 56.304688 C 90.195312 56.03125 90.199219 55.410156 90.628906 54.847656 C 90.785156 55.410156 90.753906 55.855469 90.585938 56.304688 Z M 53.980469 86.554688 C 57.574219 88.707031 61.425781 90.066406 65.308594 91.34375 C 69.167969 92.617188 73.085938 93.699219 77.199219 94.136719 C 77.199219 94.410156 77.199219 94.667969 77.199219 94.996094 C 76.429688 94.898438 75.667969 94.824219 74.917969 94.703125 C 68.019531 93.597656 61.464844 91.425781 55.152344 88.484375 C 55.054688 88.441406 54.957031 88.398438 54.863281 88.34375 C 53.804688 87.75 53.871094 88.117188 53.980469 86.554688 Z M 53.992188 68.0625 C 57.597656 70.035156 61.402344 71.503906 65.300781 72.746094 C 69.175781 73.984375 73.125 74.941406 77.234375 75.429688 C 77.246094 75.65625 77.257812 75.859375 77.265625 76.066406 C 77.269531 76.273438 77.265625 76.484375 77.265625 76.722656 C 77.101562 76.730469 76.996094 76.757812 76.902344 76.734375 C 74.160156 76.0625 71.414062 75.402344 68.679688 74.703125 C 65.105469 73.789062 61.636719 72.558594 58.242188 71.136719 C 56.960938 70.601562 55.730469 69.941406 54.492188 69.316406 C 53.8125 68.96875 53.808594 68.917969 53.992188 68.0625 Z M 96.414062 65.792969 C 96.425781 66.007812 96.421875 66.132812 96.4375 66.257812 C 96.492188 66.675781 96.355469 66.992188 96 67.238281 C 95.578125 67.535156 95.191406 67.875 94.777344 68.179688 C 91.132812 70.839844 87.175781 72.949219 83.015625 74.691406 C 81.480469 75.332031 79.894531 75.851562 78.324219 76.421875 C 78.148438 76.484375 77.960938 76.511719 77.722656 76.566406 C 77.722656 76.207031 77.722656 75.898438 77.722656 75.632812 C 84.535156 73.492188 90.789062 70.332031 96.414062 65.792969 Z M 96.378906 82.1875 C 96.488281 82.8125 96.429688 83.21875 95.996094 83.636719 C 93.070312 86.453125 89.753906 88.742188 86.234375 90.75 C 83.726562 92.179688 81.148438 93.472656 78.460938 94.539062 C 78.25 94.621094 78.03125 94.699219 77.808594 94.785156 C 77.679688 94.199219 77.675781 94.195312 78.164062 93.992188 C 82.414062 92.207031 86.4375 90.007812 90.238281 87.402344 C 92.238281 86.027344 94.058594 84.457031 95.769531 82.753906 C 95.949219 82.574219 96.132812 82.414062 96.378906 82.1875 Z M 96.378906 82.1875 " fill-opacity="1" fill-rule="nonzero"/></g></svg>