<svg xmlns="http://www.w3.org/2000/svg" xmlns:xlink="http://www.w3.org/1999/xlink" width="200" zoomAndPan="magnify" viewBox="0 0 150 149.999998" height="200" preserveAspectRatio="xMidYMid meet" version="1.0"><defs><clipPath id="d811e3f31c"><path d="M 62 46 L 95 46 L 95 134.882812 L 62 134.882812 Z M 62 46 " clip-rule="nonzero"/></clipPath><clipPath id="9909302a43"><path d="M 61 46 L 96 46 L 96 134.882812 L 61 134.882812 Z M 61 46 " clip-rule="nonzero"/></clipPath><clipPath id="018a7951c9"><path d="M 66 6.632812 L 91 6.632812 L 91 32 L 66 32 Z M 66 6.632812 " clip-rule="nonzero"/></clipPath><clipPath id="5e63690214"><path d="M 77 89 L 80 89 L 80 134.882812 L 77 134.882812 Z M 77 89 " clip-rule="nonzero"/></clipPath><clipPath id="a8a460220d"><path d="M 37.65625 39 L 47 39 L 47 44 L 37.65625 44 Z M 37.65625 39 " clip-rule="nonzero"/></clipPath><clipPath id="9db7a685b4"><path d="M 103 106 L 112.65625 106 L 112.65625 109 L 103 109 Z M 103 106 " clip-rule="nonzero"/></clipPath></defs><rect x="-15" width="180" fill="#ffffff" y="-15" height="179.999997" fill-opacity="1"/><rect x="-15" width="180" fill="#ffffff" y="-15" height="179.999997" fill-opacity="1"/><rect x="-15" width="180" fill="#ffffff" y="-15" height="179.999997" fill-opacity="1"/><path fill="#000000" d="M 100.851562 46.589844 L 100.851562 82.816406 L 56.230469 82.816406 L 56.230469 46.589844 C 56.230469 38.832031 63.757812 32.5625 73.019531 32.5625 L 84.039062 32.5625 C 93.324219 32.5625 100.851562 38.832031 100.851562 46.589844 Z M 100.851562 46.589844 " fill-opacity="1" fill-rule="nonzero"/><path fill="#000000" d="M 100.851562 83.59375 L 56.230469 83.59375 C 55.789062 83.59375 55.445312 83.253906 55.445312 82.816406 L 55.445312 46.589844 C 55.445312 38.421875 63.339844 31.78125 73.019531 31.78125 L 84.039062 31.78125 C 93.71875 31.78125 101.609375 38.421875 101.609375 46.589844 L 101.609375 82.816406 C 101.609375 83.226562 101.269531 83.59375 100.851562 83.59375 Z M 57.011719 82.035156 L 100.070312 82.035156 L 100.070312 46.589844 C 100.070312 39.269531 92.886719 33.316406 84.0625 33.316406 L 73.042969 33.316406 C 64.21875 33.316406 57.035156 39.269531 57.035156 46.589844 L 57.035156 82.035156 Z M 57.011719 82.035156 " fill-opacity="1" fill-rule="nonzero"/><g clip-path="url(#d811e3f31c)"><path fill="#000000" d="M 62.4375 46.808594 L 62.4375 129.738281 C 62.4375 132.097656 64.367188 134.015625 66.738281 134.015625 L 90.320312 134.015625 C 92.691406 134.015625 94.621094 132.097656 94.621094 129.738281 L 94.621094 46.808594 " fill-opacity="1" fill-rule="nonzero"/></g><g clip-path="url(#9909302a43)"><path fill="#000000" d="M 90.320312 134.820312 L 66.738281 134.820312 C 63.925781 134.820312 61.65625 132.558594 61.65625 129.761719 L 61.65625 46.808594 C 61.65625 46.371094 61.996094 46.03125 62.4375 46.03125 C 62.875 46.03125 63.21875 46.371094 63.21875 46.808594 L 63.21875 129.738281 C 63.21875 131.683594 64.808594 133.261719 66.761719 133.261719 L 90.34375 133.261719 C 92.300781 133.261719 93.886719 131.683594 93.886719 129.738281 L 93.886719 46.808594 C 93.886719 46.371094 94.230469 46.03125 94.671875 46.03125 C 95.109375 46.03125 95.453125 46.371094 95.453125 46.808594 L 95.453125 129.738281 C 95.402344 132.558594 93.128906 134.820312 90.320312 134.820312 Z M 90.320312 134.820312 " fill-opacity="1" fill-rule="nonzero"/></g><path fill="#000000" d="M 89.976562 18.847656 C 89.976562 19.59375 89.90625 20.335938 89.757812 21.066406 C 89.613281 21.800781 89.394531 22.511719 89.105469 23.203125 C 88.820312 23.894531 88.46875 24.546875 88.050781 25.171875 C 87.632812 25.792969 87.160156 26.367188 86.628906 26.894531 C 86.097656 27.421875 85.519531 27.894531 84.894531 28.308594 C 84.269531 28.722656 83.613281 29.074219 82.917969 29.359375 C 82.222656 29.648438 81.507812 29.863281 80.773438 30.007812 C 80.035156 30.152344 79.292969 30.226562 78.539062 30.226562 C 77.789062 30.226562 77.046875 30.152344 76.308594 30.007812 C 75.574219 29.863281 74.859375 29.648438 74.164062 29.359375 C 73.46875 29.074219 72.8125 28.722656 72.1875 28.308594 C 71.5625 27.894531 70.984375 27.421875 70.453125 26.894531 C 69.921875 26.367188 69.449219 25.792969 69.03125 25.171875 C 68.613281 24.546875 68.261719 23.894531 67.972656 23.203125 C 67.6875 22.511719 67.46875 21.800781 67.324219 21.066406 C 67.175781 20.335938 67.105469 19.59375 67.105469 18.847656 C 67.105469 18.101562 67.175781 17.363281 67.324219 16.628906 C 67.46875 15.894531 67.6875 15.183594 67.972656 14.496094 C 68.261719 13.804688 68.613281 13.148438 69.03125 12.527344 C 69.449219 11.90625 69.921875 11.332031 70.453125 10.804688 C 70.984375 10.273438 71.5625 9.804688 72.1875 9.386719 C 72.8125 8.972656 73.46875 8.621094 74.164062 8.335938 C 74.859375 8.050781 75.574219 7.835938 76.308594 7.6875 C 77.046875 7.542969 77.789062 7.46875 78.539062 7.46875 C 79.292969 7.46875 80.035156 7.542969 80.773438 7.6875 C 81.507812 7.835938 82.222656 8.050781 82.917969 8.335938 C 83.613281 8.621094 84.269531 8.972656 84.894531 9.386719 C 85.519531 9.804688 86.097656 10.273438 86.628906 10.804688 C 87.160156 11.332031 87.632812 11.90625 88.050781 12.527344 C 88.46875 13.148438 88.820312 13.804688 89.105469 14.496094 C 89.394531 15.183594 89.613281 15.894531 89.757812 16.628906 C 89.90625 17.363281 89.976562 18.101562 89.976562 18.847656 Z M 89.976562 18.847656 " fill-opacity="1" fill-rule="nonzero"/><g clip-path="url(#018a7951c9)"><path fill="#000000" d="M 78.539062 31.003906 C 71.796875 31.003906 66.320312 25.558594 66.320312 18.847656 C 66.320312 12.136719 71.796875 6.691406 78.539062 6.691406 C 85.285156 6.691406 90.761719 12.136719 90.761719 18.847656 C 90.761719 25.558594 85.285156 31.003906 78.539062 31.003906 Z M 78.539062 8.25 C 72.652344 8.25 67.863281 13.011719 67.863281 18.871094 C 67.863281 24.730469 72.652344 29.496094 78.539062 29.496094 C 84.429688 29.496094 89.21875 24.730469 89.21875 18.871094 C 89.195312 12.988281 84.429688 8.25 78.539062 8.25 Z M 78.539062 8.25 " fill-opacity="1" fill-rule="nonzero"/></g><g clip-path="url(#5e63690214)"><path fill="#000000" d="M 78.539062 134.820312 C 78.101562 134.820312 77.757812 134.480469 77.757812 134.042969 L 77.757812 90.449219 C 77.757812 90.011719 78.101562 89.671875 78.539062 89.671875 C 78.980469 89.671875 79.324219 90.011719 79.324219 90.449219 L 79.324219 134.066406 C 79.324219 134.480469 78.980469 134.820312 78.539062 134.820312 Z M 78.539062 134.820312 " fill-opacity="1" fill-rule="nonzero"/></g><path fill="#000000" d="M 67.128906 37.375 C 67.128906 37.84375 67.082031 38.308594 66.992188 38.769531 C 66.898438 39.230469 66.761719 39.675781 66.582031 40.109375 C 66.402344 40.542969 66.179688 40.957031 65.917969 41.347656 C 65.65625 41.734375 65.359375 42.097656 65.023438 42.429688 C 64.691406 42.761719 64.328125 43.058594 63.933594 43.316406 C 63.542969 43.578125 63.128906 43.800781 62.691406 43.976562 C 62.257812 44.15625 61.808594 44.292969 61.34375 44.386719 C 60.882812 44.476562 60.414062 44.523438 59.945312 44.523438 C 59.472656 44.523438 59.003906 44.476562 58.542969 44.386719 C 58.078125 44.292969 57.628906 44.15625 57.195312 43.976562 C 56.757812 43.800781 56.34375 43.578125 55.953125 43.316406 C 55.558594 43.058594 55.195312 42.761719 54.863281 42.429688 C 54.53125 42.097656 54.230469 41.734375 53.96875 41.347656 C 53.707031 40.957031 53.488281 40.542969 53.304688 40.109375 C 53.125 39.675781 52.988281 39.230469 52.898438 38.769531 C 52.804688 38.308594 52.757812 37.84375 52.757812 37.375 C 52.757812 36.90625 52.804688 36.441406 52.898438 35.980469 C 52.988281 35.519531 53.125 35.074219 53.304688 34.640625 C 53.488281 34.207031 53.707031 33.792969 53.96875 33.402344 C 54.230469 33.011719 54.53125 32.652344 54.863281 32.320312 C 55.195312 31.988281 55.558594 31.691406 55.953125 31.429688 C 56.34375 31.171875 56.757812 30.949219 57.195312 30.769531 C 57.628906 30.589844 58.078125 30.457031 58.542969 30.363281 C 59.003906 30.273438 59.472656 30.226562 59.945312 30.226562 C 60.414062 30.226562 60.882812 30.273438 61.34375 30.363281 C 61.808594 30.457031 62.257812 30.589844 62.691406 30.769531 C 63.128906 30.949219 63.542969 31.171875 63.933594 31.429688 C 64.328125 31.691406 64.691406 31.988281 65.023438 32.320312 C 65.359375 32.652344 65.65625 33.011719 65.917969 33.402344 C 66.179688 33.792969 66.402344 34.207031 66.582031 34.640625 C 66.761719 35.074219 66.898438 35.519531 66.992188 35.980469 C 67.082031 36.441406 67.128906 36.90625 67.128906 37.375 Z M 67.128906 37.375 " fill-opacity="1" fill-rule="nonzero"/><path fill="#ffffff" d="M 59.945312 45.277344 C 55.570312 45.277344 52 41.726562 52 37.375 C 52 33.023438 55.570312 29.472656 59.945312 29.472656 C 64.316406 29.472656 67.886719 33.023438 67.886719 37.375 C 67.886719 41.726562 64.316406 45.277344 59.945312 45.277344 Z M 59.945312 31.003906 C 56.425781 31.003906 53.539062 33.847656 53.539062 37.375 C 53.539062 40.875 56.398438 43.746094 59.945312 43.746094 C 63.460938 43.746094 66.347656 40.898438 66.347656 37.375 C 66.347656 33.875 63.460938 31.003906 59.945312 31.003906 Z M 59.945312 31.003906 " fill-opacity="1" fill-rule="nonzero"/><path fill="#ffffff" d="M 63.632812 37.375 C 63.632812 37.863281 63.539062 38.328125 63.351562 38.78125 C 63.164062 39.230469 62.898438 39.625 62.554688 39.96875 C 62.207031 40.316406 61.808594 40.582031 61.355469 40.765625 C 60.902344 40.953125 60.433594 41.046875 59.945312 41.046875 C 59.453125 41.046875 58.984375 40.953125 58.53125 40.765625 C 58.078125 40.582031 57.679688 40.316406 57.335938 39.96875 C 56.988281 39.625 56.722656 39.230469 56.535156 38.78125 C 56.347656 38.328125 56.253906 37.863281 56.253906 37.375 C 56.253906 36.886719 56.347656 36.417969 56.535156 35.96875 C 56.722656 35.519531 56.988281 35.121094 57.335938 34.777344 C 57.679688 34.433594 58.078125 34.167969 58.53125 33.984375 C 58.984375 33.796875 59.453125 33.703125 59.945312 33.703125 C 60.433594 33.703125 60.902344 33.796875 61.355469 33.984375 C 61.808594 34.167969 62.207031 34.433594 62.554688 34.777344 C 62.898438 35.121094 63.164062 35.519531 63.351562 35.96875 C 63.539062 36.417969 63.632812 36.886719 63.632812 37.375 Z M 63.632812 37.375 " fill-opacity="1" fill-rule="nonzero"/><path fill="#ffffff" d="M 59.945312 41.800781 C 57.476562 41.800781 55.472656 39.804688 55.472656 37.351562 C 55.472656 34.894531 57.476562 32.902344 59.945312 32.902344 C 62.410156 32.902344 64.414062 34.894531 64.414062 37.351562 C 64.390625 39.832031 62.386719 41.800781 59.945312 41.800781 Z M 59.945312 34.480469 C 58.332031 34.480469 57.035156 35.769531 57.035156 37.375 C 57.035156 38.980469 58.332031 40.269531 59.945312 40.269531 C 61.554688 40.269531 62.851562 38.980469 62.851562 37.375 C 62.851562 35.769531 61.53125 34.480469 59.945312 34.480469 Z M 59.945312 34.480469 " fill-opacity="1" fill-rule="nonzero"/><path fill="#000000" d="M 98.773438 103.328125 C 99.109375 103.660156 99.40625 104.019531 99.667969 104.410156 C 99.929688 104.800781 100.152344 105.214844 100.332031 105.648438 C 100.511719 106.082031 100.648438 106.527344 100.742188 106.988281 C 100.832031 107.449219 100.878906 107.914062 100.878906 108.382812 C 100.878906 108.851562 100.832031 109.316406 100.742188 109.777344 C 100.648438 110.238281 100.511719 110.683594 100.332031 111.117188 C 100.152344 111.550781 99.929688 111.964844 99.667969 112.355469 C 99.40625 112.746094 99.109375 113.105469 98.773438 113.4375 C 98.441406 113.769531 98.078125 114.066406 97.6875 114.328125 C 97.292969 114.585938 96.878906 114.808594 96.445312 114.988281 C 96.007812 115.167969 95.558594 115.300781 95.097656 115.394531 C 94.632812 115.484375 94.167969 115.53125 93.695312 115.53125 C 93.222656 115.53125 92.753906 115.484375 92.292969 115.394531 C 91.832031 115.300781 91.382812 115.167969 90.945312 114.988281 C 90.507812 114.808594 90.09375 114.585938 89.703125 114.328125 C 89.3125 114.066406 88.949219 113.769531 88.613281 113.4375 C 88.28125 113.105469 87.984375 112.746094 87.71875 112.355469 C 87.457031 111.964844 87.238281 111.550781 87.054688 111.117188 C 86.875 110.683594 86.738281 110.238281 86.648438 109.777344 C 86.554688 109.316406 86.507812 108.851562 86.507812 108.382812 C 86.507812 107.914062 86.554688 107.449219 86.648438 106.988281 C 86.738281 106.527344 86.875 106.082031 87.054688 105.648438 C 87.238281 105.214844 87.457031 104.800781 87.71875 104.410156 C 87.984375 104.023438 88.28125 103.660156 88.613281 103.328125 C 88.949219 102.996094 89.308594 102.699219 89.703125 102.441406 C 90.09375 102.179688 90.507812 101.957031 90.945312 101.777344 C 91.378906 101.601562 91.828125 101.464844 92.292969 101.371094 C 92.753906 101.28125 93.222656 101.234375 93.695312 101.234375 C 94.167969 101.234375 94.632812 101.28125 95.097656 101.371094 C 95.558594 101.464844 96.007812 101.597656 96.445312 101.777344 C 96.878906 101.957031 97.292969 102.179688 97.6875 102.441406 C 98.078125 102.699219 98.441406 102.996094 98.773438 103.328125 Z M 98.773438 103.328125 " fill-opacity="1" fill-rule="nonzero"/><path fill="#ffffff" d="M 93.691406 116.292969 C 89.316406 116.292969 85.75 112.742188 85.75 108.390625 C 85.75 104.039062 89.316406 100.492188 93.691406 100.492188 C 98.066406 100.492188 101.632812 104.039062 101.632812 108.390625 C 101.632812 112.742188 98.066406 116.292969 93.691406 116.292969 Z M 93.691406 102.023438 C 90.171875 102.023438 87.289062 104.867188 87.289062 108.390625 C 87.289062 111.894531 90.148438 114.761719 93.691406 114.761719 C 97.210938 114.761719 100.09375 111.917969 100.09375 108.390625 C 100.09375 104.867188 97.210938 102.023438 93.691406 102.023438 Z M 93.691406 102.023438 " fill-opacity="1" fill-rule="nonzero"/><path fill="#ffffff" d="M 97.359375 108.390625 C 97.359375 110.410156 95.695312 112.0625 93.667969 112.0625 C 91.640625 112.0625 89.976562 110.410156 89.976562 108.390625 C 89.976562 106.375 91.640625 104.71875 93.667969 104.71875 C 95.722656 104.71875 97.359375 106.347656 97.359375 108.390625 Z M 97.359375 108.390625 " fill-opacity="1" fill-rule="nonzero"/><path fill="#ffffff" d="M 93.691406 112.816406 C 91.222656 112.816406 89.21875 110.824219 89.21875 108.367188 C 89.21875 105.910156 91.222656 103.917969 93.691406 103.917969 C 96.160156 103.917969 98.164062 105.910156 98.164062 108.367188 C 98.140625 110.824219 96.136719 112.816406 93.691406 112.816406 Z M 93.691406 105.5 C 92.078125 105.5 90.785156 106.789062 90.785156 108.390625 C 90.785156 109.996094 92.078125 111.285156 93.691406 111.285156 C 95.304688 111.285156 96.601562 109.996094 96.601562 108.390625 C 96.601562 106.789062 95.28125 105.5 93.691406 105.5 Z M 93.691406 105.5 " fill-opacity="1" fill-rule="nonzero"/><path fill="#000000" d="M 69.277344 79.433594 C 69.277344 79.90625 69.234375 80.371094 69.140625 80.828125 C 69.050781 81.289062 68.914062 81.738281 68.730469 82.171875 C 68.550781 82.605469 68.332031 83.015625 68.066406 83.40625 C 67.804688 83.796875 67.507812 84.15625 67.175781 84.488281 C 66.839844 84.820312 66.476562 85.117188 66.085938 85.378906 C 65.695312 85.640625 65.28125 85.859375 64.84375 86.039062 C 64.40625 86.21875 63.957031 86.355469 63.496094 86.445312 C 63.03125 86.539062 62.566406 86.582031 62.09375 86.582031 C 61.621094 86.582031 61.15625 86.539062 60.691406 86.445312 C 60.230469 86.355469 59.78125 86.21875 59.34375 86.039062 C 58.910156 85.859375 58.496094 85.640625 58.101562 85.378906 C 57.710938 85.117188 57.347656 84.820312 57.015625 84.488281 C 56.679688 84.15625 56.382812 83.796875 56.121094 83.40625 C 55.859375 83.015625 55.636719 82.605469 55.457031 82.171875 C 55.277344 81.738281 55.140625 81.289062 55.046875 80.828125 C 54.957031 80.371094 54.910156 79.90625 54.910156 79.433594 C 54.910156 78.964844 54.957031 78.5 55.046875 78.042969 C 55.140625 77.582031 55.277344 77.132812 55.457031 76.699219 C 55.636719 76.265625 55.859375 75.855469 56.121094 75.464844 C 56.382812 75.074219 56.679688 74.714844 57.015625 74.382812 C 57.347656 74.050781 57.710938 73.753906 58.101562 73.492188 C 58.496094 73.230469 58.910156 73.011719 59.34375 72.832031 C 59.78125 72.652344 60.230469 72.515625 60.691406 72.425781 C 61.15625 72.332031 61.621094 72.289062 62.09375 72.289062 C 62.566406 72.289062 63.03125 72.332031 63.496094 72.425781 C 63.957031 72.515625 64.40625 72.652344 64.84375 72.832031 C 65.28125 73.011719 65.695312 73.230469 66.085938 73.492188 C 66.476562 73.753906 66.839844 74.050781 67.175781 74.382812 C 67.507812 74.714844 67.804688 75.074219 68.066406 75.464844 C 68.332031 75.855469 68.550781 76.265625 68.730469 76.699219 C 68.914062 77.132812 69.050781 77.582031 69.140625 78.042969 C 69.234375 78.5 69.277344 78.964844 69.277344 79.433594 Z M 69.277344 79.433594 " fill-opacity="1" fill-rule="nonzero"/><path fill="#ffffff" d="M 62.09375 87.363281 C 57.71875 87.363281 54.152344 83.8125 54.152344 79.460938 C 54.152344 75.109375 57.71875 71.558594 62.09375 71.558594 C 66.46875 71.558594 70.035156 75.109375 70.035156 79.460938 C 70.035156 83.8125 66.46875 87.363281 62.09375 87.363281 Z M 62.09375 73.066406 C 58.574219 73.066406 55.691406 75.910156 55.691406 79.433594 C 55.691406 82.9375 58.550781 85.804688 62.09375 85.804688 C 65.613281 85.804688 68.496094 82.960938 68.496094 79.433594 C 68.496094 75.933594 65.613281 73.066406 62.09375 73.066406 Z M 62.09375 73.066406 " fill-opacity="1" fill-rule="nonzero"/><path fill="#ffffff" d="M 65.761719 79.433594 C 65.761719 81.453125 64.097656 83.105469 62.070312 83.105469 C 60.042969 83.105469 58.378906 81.453125 58.378906 79.433594 C 58.378906 77.417969 60.042969 75.765625 62.070312 75.765625 C 64.121094 75.765625 65.761719 77.417969 65.761719 79.433594 Z M 65.761719 79.433594 " fill-opacity="1" fill-rule="nonzero"/><path fill="#ffffff" d="M 62.09375 83.882812 C 59.625 83.882812 57.621094 81.890625 57.621094 79.433594 C 57.621094 76.980469 59.625 74.988281 62.09375 74.988281 C 64.5625 74.988281 66.566406 76.980469 66.566406 79.433594 C 66.542969 81.890625 64.539062 83.882812 62.09375 83.882812 Z M 62.09375 76.542969 C 60.480469 76.542969 59.1875 77.832031 59.1875 79.433594 C 59.1875 81.039062 60.480469 82.328125 62.09375 82.328125 C 63.707031 82.328125 65.003906 81.039062 65.003906 79.433594 C 65.003906 77.855469 63.683594 76.542969 62.09375 76.542969 Z M 62.09375 76.542969 " fill-opacity="1" fill-rule="nonzero"/><path fill="#ffffff" d="M 48.507812 21.304688 L 51.855469 27.964844 " fill-opacity="1" fill-rule="nonzero"/><path fill="#ffffff" d="M 51.855469 28.742188 C 51.5625 28.742188 51.292969 28.597656 51.171875 28.304688 L 47.796875 21.644531 C 47.601562 21.253906 47.773438 20.792969 48.140625 20.597656 C 48.53125 20.40625 48.996094 20.574219 49.191406 20.9375 L 52.539062 27.601562 C 52.734375 27.988281 52.5625 28.453125 52.195312 28.644531 C 52.074219 28.71875 51.953125 28.742188 51.855469 28.742188 Z M 51.855469 28.742188 " fill-opacity="1" fill-rule="nonzero"/><path fill="#ffffff" d="M 40.90625 30.105469 L 47.382812 33.824219 " fill-opacity="1" fill-rule="nonzero"/><path fill="#ffffff" d="M 47.382812 34.601562 C 47.261719 34.601562 47.113281 34.578125 46.992188 34.503906 L 40.515625 30.761719 C 40.148438 30.542969 40.027344 30.082031 40.222656 29.714844 C 40.441406 29.351562 40.90625 29.230469 41.273438 29.425781 L 47.75 33.144531 C 48.117188 33.363281 48.238281 33.824219 48.042969 34.191406 C 47.921875 34.457031 47.652344 34.601562 47.382812 34.601562 Z M 47.382812 34.601562 " fill-opacity="1" fill-rule="nonzero"/><path fill="#ffffff" d="M 38.511719 42.238281 L 45.746094 40.339844 " fill-opacity="1" fill-rule="nonzero"/><g clip-path="url(#a8a460220d)"><path fill="#ffffff" d="M 38.511719 43.015625 C 38.167969 43.015625 37.851562 42.796875 37.753906 42.433594 C 37.65625 42.019531 37.902344 41.605469 38.316406 41.484375 L 45.550781 39.585938 C 45.964844 39.464844 46.378906 39.734375 46.503906 40.144531 C 46.601562 40.558594 46.355469 40.972656 45.941406 41.09375 L 38.707031 42.992188 C 38.632812 43.015625 38.585938 43.015625 38.511719 43.015625 Z M 38.511719 43.015625 " fill-opacity="1" fill-rule="nonzero"/></g><path fill="#ffffff" d="M 43.253906 71.484375 L 50.046875 74.644531 " fill-opacity="1" fill-rule="nonzero"/><path fill="#ffffff" d="M 50.046875 75.425781 C 49.925781 75.425781 49.828125 75.398438 49.730469 75.351562 L 42.933594 72.191406 C 42.542969 72.019531 42.371094 71.558594 42.566406 71.167969 C 42.738281 70.78125 43.203125 70.609375 43.59375 70.804688 L 50.386719 73.964844 C 50.78125 74.136719 50.949219 74.597656 50.753906 74.988281 C 50.609375 75.253906 50.339844 75.425781 50.046875 75.425781 Z M 50.046875 75.425781 " fill-opacity="1" fill-rule="nonzero"/><path fill="#ffffff" d="M 42.789062 83.082031 L 50.191406 81.988281 " fill-opacity="1" fill-rule="nonzero"/><path fill="#ffffff" d="M 42.789062 83.835938 C 42.421875 83.835938 42.078125 83.570312 42.03125 83.179688 C 41.957031 82.765625 42.25 82.378906 42.691406 82.304688 L 50.09375 81.210938 C 50.511719 81.136719 50.902344 81.429688 50.976562 81.867188 C 51.046875 82.28125 50.753906 82.667969 50.316406 82.742188 L 42.910156 83.835938 C 42.863281 83.835938 42.835938 83.835938 42.789062 83.835938 Z M 42.789062 83.835938 " fill-opacity="1" fill-rule="nonzero"/><path fill="#ffffff" d="M 48.507812 94.070312 L 52.980469 88.113281 " fill-opacity="1" fill-rule="nonzero"/><path fill="#ffffff" d="M 48.507812 94.824219 C 48.335938 94.824219 48.1875 94.777344 48.042969 94.679688 C 47.699219 94.410156 47.625 93.949219 47.894531 93.609375 L 52.390625 87.652344 C 52.636719 87.3125 53.125 87.238281 53.46875 87.507812 C 53.808594 87.773438 53.882812 88.238281 53.613281 88.578125 L 49.117188 94.535156 C 48.972656 94.726562 48.726562 94.824219 48.507812 94.824219 Z M 48.507812 94.824219 " fill-opacity="1" fill-rule="nonzero"/><path fill="#ffffff" d="M 109.160156 96.113281 L 103.125 100.539062 " fill-opacity="1" fill-rule="nonzero"/><path fill="#ffffff" d="M 103.125 101.292969 C 102.882812 101.292969 102.660156 101.195312 102.488281 100.976562 C 102.246094 100.636719 102.320312 100.148438 102.660156 99.90625 L 108.699219 95.507812 C 109.039062 95.261719 109.527344 95.335938 109.773438 95.675781 C 110.015625 96.015625 109.945312 96.503906 109.601562 96.746094 L 103.566406 101.148438 C 103.441406 101.242188 103.273438 101.292969 103.125 101.292969 Z M 103.125 101.292969 " fill-opacity="1" fill-rule="nonzero"/><path fill="#ffffff" d="M 111.875 107.394531 L 104.394531 107.757812 " fill-opacity="1" fill-rule="nonzero"/><g clip-path="url(#9db7a685b4)"><path fill="#ffffff" d="M 104.394531 108.539062 C 103.980469 108.539062 103.636719 108.222656 103.613281 107.808594 C 103.589844 107.371094 103.933594 107.03125 104.347656 107.007812 L 111.824219 106.640625 C 112.242188 106.617188 112.605469 106.957031 112.632812 107.371094 C 112.65625 107.808594 112.3125 108.148438 111.898438 108.171875 L 104.421875 108.539062 C 104.421875 108.539062 104.421875 108.539062 104.394531 108.539062 Z M 104.394531 108.539062 " fill-opacity="1" fill-rule="nonzero"/></g><path fill="#ffffff" d="M 108.429688 119.285156 L 102.855469 114.300781 " fill-opacity="1" fill-rule="nonzero"/><path fill="#ffffff" d="M 108.429688 120.0625 C 108.234375 120.0625 108.0625 119.988281 107.914062 119.867188 L 102.34375 114.882812 C 102.027344 114.589844 102 114.105469 102.292969 113.789062 C 102.585938 113.472656 103.078125 113.449219 103.394531 113.742188 L 108.964844 118.726562 C 109.285156 119.015625 109.308594 119.503906 109.015625 119.820312 C 108.84375 119.964844 108.648438 120.0625 108.429688 120.0625 Z M 108.429688 120.0625 " fill-opacity="1" fill-rule="nonzero"/></svg>