<svg xmlns="http://www.w3.org/2000/svg" xmlns:xlink="http://www.w3.org/1999/xlink" width="200" zoomAndPan="magnify" viewBox="0 0 150 149.999998" height="200" preserveAspectRatio="xMidYMid meet" version="1.0"><defs><clipPath id="1dac594820"><path d="M 98 10.769531 L 119.527344 10.769531 L 119.527344 31 L 98 31 Z M 98 10.769531 " clip-rule="nonzero"/></clipPath><clipPath id="47225c025d"><path d="M 30.277344 10.769531 L 49 10.769531 L 49 29 L 30.277344 29 Z M 30.277344 10.769531 " clip-rule="nonzero"/></clipPath><clipPath id="4118b2f80a"><path d="M 45 20 L 98 20 L 98 139.019531 L 45 139.019531 Z M 45 20 " clip-rule="nonzero"/></clipPath></defs><rect x="-15" width="180" fill="#ffffff" y="-15" height="179.999997" fill-opacity="1"/><rect x="-15" width="180" fill="#ffffff" y="-15" height="179.999997" fill-opacity="1"/><g clip-path="url(#1dac594820)"><path fill="#000000" d="M 118.8125 18.09375 C 118.574219 17.382812 118.167969 16.785156 117.59375 16.300781 C 117.019531 15.816406 116.359375 15.519531 115.617188 15.40625 L 113.578125 15.09375 L 112.628906 13.074219 C 112.300781 12.371094 111.808594 11.808594 111.152344 11.394531 C 110.496094 10.976562 109.78125 10.769531 109.003906 10.769531 C 108.226562 10.769531 107.511719 10.976562 106.855469 11.394531 C 106.199219 11.808594 105.707031 12.371094 105.378906 13.074219 L 104.429688 15.09375 L 102.390625 15.40625 C 101.648438 15.519531 100.988281 15.816406 100.414062 16.300781 C 99.839844 16.785156 99.433594 17.382812 99.195312 18.09375 C 98.957031 18.808594 98.921875 19.53125 99.089844 20.261719 C 99.257812 20.996094 99.605469 21.628906 100.128906 22.167969 L 101.71875 23.800781 L 101.335938 26.152344 C 101.214844 26.910156 101.300781 27.644531 101.597656 28.351562 C 101.894531 29.058594 102.355469 29.632812 102.984375 30.074219 C 103.609375 30.515625 104.308594 30.757812 105.074219 30.800781 C 105.839844 30.84375 106.558594 30.675781 107.230469 30.304688 L 109.003906 29.324219 L 110.78125 30.304688 C 111.453125 30.675781 112.167969 30.84375 112.9375 30.800781 C 113.703125 30.757812 114.398438 30.515625 115.023438 30.074219 C 115.652344 29.632812 116.113281 29.058594 116.410156 28.351562 C 116.707031 27.644531 116.796875 26.910156 116.671875 26.152344 L 116.289062 23.800781 L 117.878906 22.167969 C 118.40625 21.628906 118.75 20.996094 118.917969 20.261719 C 119.085938 19.53125 119.050781 18.808594 118.8125 18.09375 Z M 112.71875 26.800781 L 109.003906 24.746094 L 105.289062 26.800781 L 106 22.449219 L 102.996094 19.367188 L 107.148438 18.734375 L 109.003906 14.777344 L 110.859375 18.734375 L 115.011719 19.367188 L 112.007812 22.449219 Z M 112.71875 26.800781 " fill-opacity="1" fill-rule="nonzero"/></g><g clip-path="url(#47225c025d)"><path fill="#000000" d="M 46.949219 24.148438 L 46.683594 22.519531 L 47.777344 21.402344 C 48.300781 20.863281 48.644531 20.230469 48.8125 19.496094 C 48.980469 18.765625 48.945312 18.042969 48.707031 17.332031 C 48.46875 16.617188 48.0625 16.019531 47.488281 15.535156 C 46.914062 15.050781 46.253906 14.753906 45.511719 14.640625 L 44.167969 14.433594 L 43.527344 13.074219 C 43.199219 12.371094 42.703125 11.808594 42.050781 11.394531 C 41.394531 10.976562 40.675781 10.769531 39.902344 10.769531 C 39.125 10.769531 38.410156 10.976562 37.753906 11.394531 C 37.097656 11.808594 36.605469 12.371094 36.273438 13.074219 L 35.636719 14.433594 L 34.289062 14.640625 C 33.546875 14.753906 32.886719 15.050781 32.3125 15.535156 C 31.738281 16.019531 31.332031 16.617188 31.09375 17.332031 C 30.855469 18.042969 30.820312 18.765625 30.988281 19.496094 C 31.15625 20.230469 31.5 20.863281 32.027344 21.402344 L 33.117188 22.519531 L 32.851562 24.148438 C 32.730469 24.90625 32.816406 25.640625 33.113281 26.347656 C 33.410156 27.054688 33.871094 27.628906 34.5 28.070312 C 35.125 28.511719 35.824219 28.753906 36.589844 28.796875 C 37.355469 28.839844 38.074219 28.671875 38.746094 28.300781 L 39.902344 27.664062 L 41.058594 28.300781 C 41.730469 28.671875 42.449219 28.839844 43.214844 28.796875 C 43.980469 28.753906 44.675781 28.511719 45.304688 28.070312 C 45.929688 27.628906 46.390625 27.054688 46.6875 26.347656 C 46.984375 25.640625 47.074219 24.90625 46.949219 24.148438 Z M 42.996094 24.796875 L 39.902344 23.082031 L 36.804688 24.796875 L 37.398438 21.167969 L 34.894531 18.601562 L 38.355469 18.074219 L 39.902344 14.777344 L 41.449219 18.074219 L 44.910156 18.601562 L 42.40625 21.167969 Z M 42.996094 24.796875 " fill-opacity="1" fill-rule="nonzero"/></g><path fill="#000000" d="M 62.933594 29.304688 C 62.667969 29.304688 62.414062 29.355469 62.167969 29.457031 C 61.921875 29.558594 61.707031 29.703125 61.519531 29.890625 C 61.332031 30.078125 61.1875 30.296875 61.085938 30.539062 C 60.984375 30.785156 60.933594 31.042969 60.933594 31.308594 L 60.933594 32.308594 C 60.933594 32.574219 60.984375 32.832031 61.085938 33.078125 C 61.1875 33.320312 61.332031 33.539062 61.519531 33.726562 C 61.707031 33.914062 61.921875 34.058594 62.167969 34.160156 C 62.414062 34.261719 62.667969 34.3125 62.933594 34.3125 C 63.199219 34.3125 63.457031 34.261719 63.703125 34.160156 C 63.945312 34.058594 64.164062 33.914062 64.351562 33.726562 C 64.539062 33.539062 64.683594 33.320312 64.785156 33.078125 C 64.886719 32.832031 64.9375 32.574219 64.9375 32.308594 L 64.9375 31.308594 C 64.9375 31.042969 64.886719 30.785156 64.785156 30.539062 C 64.683594 30.296875 64.539062 30.078125 64.351562 29.890625 C 64.164062 29.703125 63.945312 29.558594 63.703125 29.457031 C 63.457031 29.355469 63.199219 29.304688 62.933594 29.304688 Z M 62.933594 29.304688 " fill-opacity="1" fill-rule="nonzero"/><path fill="#000000" d="M 68.945312 29.304688 C 68.679688 29.304688 68.421875 29.355469 68.179688 29.457031 C 67.933594 29.558594 67.714844 29.703125 67.527344 29.890625 C 67.339844 30.078125 67.195312 30.296875 67.09375 30.539062 C 66.992188 30.785156 66.941406 31.042969 66.941406 31.308594 L 66.941406 32.308594 C 66.941406 32.574219 66.992188 32.832031 67.09375 33.078125 C 67.195312 33.320312 67.339844 33.539062 67.527344 33.726562 C 67.714844 33.914062 67.933594 34.058594 68.175781 34.160156 C 68.421875 34.261719 68.679688 34.3125 68.945312 34.3125 C 69.210938 34.3125 69.464844 34.261719 69.710938 34.160156 C 69.957031 34.058594 70.171875 33.914062 70.359375 33.726562 C 70.546875 33.539062 70.691406 33.320312 70.792969 33.078125 C 70.894531 32.832031 70.945312 32.574219 70.945312 32.308594 L 70.945312 31.308594 C 70.945312 31.042969 70.894531 30.785156 70.792969 30.539062 C 70.691406 30.296875 70.546875 30.078125 70.359375 29.890625 C 70.171875 29.703125 69.957031 29.558594 69.710938 29.457031 C 69.464844 29.355469 69.210938 29.304688 68.945312 29.304688 Z M 68.945312 29.304688 " fill-opacity="1" fill-rule="nonzero"/><path fill="#000000" d="M 74.953125 34.3125 C 75.21875 34.3125 75.472656 34.261719 75.71875 34.160156 C 75.964844 34.058594 76.183594 33.914062 76.371094 33.726562 C 76.558594 33.539062 76.703125 33.320312 76.804688 33.078125 C 76.90625 32.832031 76.957031 32.574219 76.957031 32.308594 L 76.957031 31.308594 C 76.957031 31.042969 76.90625 30.785156 76.804688 30.539062 C 76.703125 30.296875 76.558594 30.078125 76.371094 29.890625 C 76.183594 29.703125 75.964844 29.558594 75.71875 29.457031 C 75.472656 29.355469 75.21875 29.304688 74.953125 29.304688 C 74.6875 29.304688 74.433594 29.355469 74.1875 29.457031 C 73.941406 29.558594 73.726562 29.703125 73.535156 29.890625 C 73.347656 30.078125 73.203125 30.296875 73.101562 30.539062 C 73 30.785156 72.949219 31.042969 72.949219 31.308594 L 72.949219 32.308594 C 72.949219 32.574219 73 32.832031 73.101562 33.078125 C 73.203125 33.320312 73.347656 33.539062 73.535156 33.726562 C 73.726562 33.914062 73.941406 34.058594 74.1875 34.160156 C 74.433594 34.261719 74.6875 34.3125 74.953125 34.3125 Z M 74.953125 34.3125 " fill-opacity="1" fill-rule="nonzero"/><path fill="#000000" d="M 80.960938 34.3125 C 81.226562 34.3125 81.484375 34.261719 81.730469 34.160156 C 81.972656 34.058594 82.191406 33.914062 82.378906 33.726562 C 82.566406 33.539062 82.710938 33.320312 82.8125 33.078125 C 82.914062 32.832031 82.964844 32.574219 82.964844 32.308594 L 82.964844 31.308594 C 82.964844 31.042969 82.914062 30.785156 82.8125 30.539062 C 82.710938 30.296875 82.566406 30.078125 82.378906 29.890625 C 82.191406 29.703125 81.972656 29.558594 81.730469 29.457031 C 81.484375 29.355469 81.226562 29.304688 80.960938 29.304688 C 80.695312 29.304688 80.441406 29.355469 80.195312 29.457031 C 79.949219 29.558594 79.734375 29.703125 79.546875 29.890625 C 79.359375 30.078125 79.214844 30.296875 79.113281 30.539062 C 79.011719 30.785156 78.960938 31.042969 78.960938 31.308594 L 78.960938 32.308594 C 78.960938 32.574219 79.011719 32.832031 79.113281 33.078125 C 79.214844 33.320312 79.359375 33.539062 79.546875 33.726562 C 79.734375 33.914062 79.949219 34.058594 80.195312 34.160156 C 80.441406 34.261719 80.695312 34.3125 80.960938 34.3125 Z M 80.960938 34.3125 " fill-opacity="1" fill-rule="nonzero"/><g clip-path="url(#4118b2f80a)"><path fill="#000000" d="M 95.335938 71.515625 C 94.867188 71.378906 94.417969 71.195312 93.980469 70.972656 C 93.140625 71.414062 92.246094 71.691406 91.304688 71.816406 C 90.859375 82.230469 91.734375 92.617188 92.59375 102.75 C 93.277344 110.789062 93.980469 119.097656 93.980469 127.15625 C 93.980469 131.488281 84.371094 135.011719 72.5625 135.011719 C 59.214844 135.011719 49.914062 130.871094 49.914062 127.15625 C 49.914062 119.097656 50.621094 110.789062 51.304688 102.75 C 52.488281 88.800781 53.710938 74.378906 51.460938 60.054688 C 49.871094 49.9375 51.582031 45.773438 52.742188 44.1875 C 53.167969 43.519531 53.761719 43.066406 54.515625 42.832031 L 89.503906 42.832031 C 90.085938 43.082031 90.578125 43.457031 90.972656 43.953125 C 91.0625 44.0625 91.15625 44.191406 91.253906 44.332031 C 92.675781 43.785156 94.132812 43.679688 95.617188 44.019531 C 93.445312 38.957031 89.628906 38.824219 89.628906 38.824219 L 88.972656 38.824219 L 88.972656 26.800781 C 88.972656 26.402344 88.9375 26.011719 88.859375 25.625 C 88.78125 25.238281 88.667969 24.863281 88.515625 24.5 C 88.367188 24.132812 88.179688 23.789062 87.960938 23.457031 C 87.742188 23.128906 87.492188 22.828125 87.214844 22.546875 C 86.933594 22.269531 86.632812 22.019531 86.304688 21.800781 C 85.976562 21.582031 85.628906 21.394531 85.265625 21.246094 C 84.898438 21.09375 84.523438 20.980469 84.136719 20.902344 C 83.75 20.824219 83.359375 20.789062 82.964844 20.789062 L 60.933594 20.789062 C 60.539062 20.789062 60.148438 20.824219 59.761719 20.902344 C 59.371094 20.980469 58.996094 21.09375 58.632812 21.246094 C 58.269531 21.394531 57.921875 21.582031 57.59375 21.800781 C 57.265625 22.019531 56.960938 22.269531 56.683594 22.546875 C 56.402344 22.828125 56.15625 23.128906 55.9375 23.457031 C 55.714844 23.789062 55.53125 24.132812 55.378906 24.5 C 55.230469 24.863281 55.117188 25.238281 55.039062 25.625 C 54.960938 26.011719 54.921875 26.402344 54.921875 26.800781 L 54.921875 38.824219 L 54.269531 38.824219 C 54.269531 38.824219 44.117188 39.152344 47.503906 60.679688 C 50.96875 82.730469 45.910156 105.050781 45.910156 127.15625 C 45.910156 134.933594 59.34375 139.019531 72.5625 139.019531 C 85.375 139.019531 97.988281 135.183594 97.988281 127.15625 C 97.988281 108.664062 94.464844 90.027344 95.335938 71.515625 Z M 58.929688 26.800781 C 58.929688 26.535156 58.980469 26.277344 59.082031 26.03125 C 59.183594 25.785156 59.328125 25.570312 59.515625 25.382812 C 59.703125 25.195312 59.921875 25.050781 60.167969 24.949219 C 60.410156 24.847656 60.667969 24.796875 60.933594 24.796875 L 82.964844 24.796875 C 83.230469 24.796875 83.484375 24.847656 83.730469 24.949219 C 83.976562 25.050781 84.191406 25.195312 84.382812 25.382812 C 84.570312 25.570312 84.714844 25.785156 84.816406 26.03125 C 84.917969 26.277344 84.96875 26.535156 84.96875 26.800781 L 84.96875 38.824219 L 58.929688 38.824219 Z M 54.417969 42.832031 C 54.398438 42.832031 54.382812 42.832031 54.363281 42.832031 C 54.300781 42.832031 54.210938 42.832031 54.269531 42.832031 Z M 54.417969 42.832031 " fill-opacity="1" fill-rule="nonzero"/></g><path fill="#000000" d="M 100.59375 52.476562 L 98.558594 52.167969 L 97.609375 50.144531 C 97.277344 49.441406 96.785156 48.882812 96.128906 48.464844 C 95.472656 48.046875 94.757812 47.839844 93.980469 47.839844 C 93.203125 47.839844 92.488281 48.046875 91.832031 48.464844 C 91.179688 48.882812 90.683594 49.441406 90.355469 50.144531 L 89.40625 52.167969 L 87.367188 52.476562 C 86.625 52.59375 85.96875 52.890625 85.394531 53.375 C 84.820312 53.859375 84.414062 54.457031 84.175781 55.167969 C 83.9375 55.878906 83.898438 56.601562 84.066406 57.335938 C 84.234375 58.066406 84.582031 58.703125 85.105469 59.238281 L 86.699219 60.871094 L 86.3125 63.226562 C 86.191406 63.984375 86.277344 64.714844 86.574219 65.421875 C 86.871094 66.128906 87.332031 66.707031 87.960938 67.148438 C 88.585938 67.589844 89.285156 67.832031 90.050781 67.871094 C 90.816406 67.914062 91.535156 67.75 92.207031 67.378906 L 93.980469 66.398438 L 95.757812 67.378906 C 96.429688 67.75 97.148438 67.914062 97.914062 67.871094 C 98.679688 67.832031 99.375 67.589844 100.003906 67.148438 C 100.628906 66.707031 101.089844 66.128906 101.390625 65.421875 C 101.6875 64.714844 101.773438 63.984375 101.648438 63.226562 L 101.265625 60.871094 L 102.859375 59.238281 C 103.382812 58.703125 103.726562 58.066406 103.894531 57.335938 C 104.0625 56.601562 104.027344 55.878906 103.789062 55.167969 C 103.550781 54.457031 103.144531 53.859375 102.570312 53.375 C 101.996094 52.890625 101.335938 52.59375 100.597656 52.476562 Z M 97.695312 63.871094 L 93.980469 61.816406 L 90.269531 63.871094 L 90.976562 59.519531 L 87.972656 56.441406 L 92.125 55.804688 L 93.980469 51.847656 L 95.839844 55.804688 L 99.992188 56.441406 L 96.984375 59.519531 Z M 97.695312 63.871094 " fill-opacity="1" fill-rule="nonzero"/><path fill="#000000" d="M 71.574219 72.128906 C 68.417969 75.140625 60.933594 83.292969 60.933594 92.878906 C 60.933594 104.878906 72.660156 104.953125 72.945312 104.953125 L 72.957031 104.953125 C 73.242188 104.953125 84.96875 104.878906 84.96875 92.878906 C 84.96875 83.292969 77.484375 75.140625 74.328125 72.128906 C 74.140625 71.949219 73.929688 71.8125 73.691406 71.71875 C 73.453125 71.621094 73.207031 71.574219 72.949219 71.574219 C 72.695312 71.574219 72.445312 71.621094 72.207031 71.71875 C 71.96875 71.8125 71.757812 71.949219 71.574219 72.128906 Z M 80.960938 92.878906 C 80.960938 96.285156 79.816406 98.480469 77.359375 99.789062 C 75.972656 100.488281 74.507812 100.871094 72.957031 100.945312 C 71.402344 100.875 69.929688 100.488281 68.542969 99.789062 C 66.082031 98.480469 64.9375 96.285156 64.9375 92.878906 C 64.9375 85.953125 70.019531 79.546875 72.949219 76.429688 C 75.882812 79.546875 80.960938 85.953125 80.960938 92.878906 Z M 80.960938 92.878906 " fill-opacity="1" fill-rule="nonzero"/></svg>