<?xml version="1.0" encoding="UTF-8"?>
<svg width="472px" height="85px" viewBox="0 0 472 85" version="1.1" xmlns="http://www.w3.org/2000/svg" xmlns:xlink="http://www.w3.org/1999/xlink">
    <title>Fill 436</title>
    <g id="Largest-RM-Edits" stroke="none" stroke-width="1" fill="none" fill-rule="evenodd">
        <g id="Citrus-Version-2-(RM-feedback)" transform="translate(-486.000000, -1252.000000)" fill="#FDEB0E">
            <path d="M957.102173,1284.14121 L924.209484,1284.14121 L924.209484,1284.1398 C923.171246,1284.1398 922.069095,1283.37763 921.746687,1282.43839 L911.581612,1252.7055 C911.259204,1251.76483 910.740796,1251.76483 910.418388,1252.7055 L900.256153,1282.43839 C899.933746,1283.37763 898.831594,1284.1398 897.793356,1284.1398 L864.897827,1284.1398 C863.859589,1284.1398 863.697675,1284.61013 864.538492,1285.19096 L891.149201,1303.56506 C891.990017,1304.14589 892.411846,1305.37839 892.090858,1306.31763 L881.927204,1336.05052 C881.604796,1336.98835 882.026625,1337.28019 882.867441,1336.69935 L909.47815,1318.32526 C910.318967,1317.74442 911.681033,1317.74442 912.52185,1318.32526 L939.132559,1336.70077 C939.973375,1337.2816 940.395204,1336.99119 940.074216,1336.05194 L929.910562,1306.31905 C929.588154,1305.3798 930.009983,1304.14872 930.850799,1303.56648 L957.461508,1285.19238 C958.302325,1284.61155 958.140411,1284.14121 957.102173,1284.14121 M863.102173,1284.14121 L830.209484,1284.14121 L830.209484,1284.1398 C829.171246,1284.1398 828.069095,1283.37763 827.746687,1282.43839 L817.581612,1252.7055 C817.259204,1251.76483 816.740796,1251.76483 816.418388,1252.7055 L806.254733,1282.43839 C805.933746,1283.37763 804.831594,1284.1398 803.793356,1284.1398 L770.897827,1284.1398 C769.859589,1284.1398 769.697675,1284.61013 770.538492,1285.19096 L797.149201,1303.56506 C797.990017,1304.14589 798.411846,1305.37839 798.089438,1306.31763 L787.927204,1336.05052 C787.604796,1336.98835 788.026625,1337.28019 788.867441,1336.69935 L815.47815,1318.32526 C816.318967,1317.74442 817.681033,1317.74442 818.52185,1318.32526 L845.132559,1336.70077 C845.973375,1337.2816 846.395204,1336.99119 846.074216,1336.05194 L835.910562,1306.31905 C835.588154,1305.3798 836.009983,1304.14872 836.850799,1303.56648 L863.461508,1285.19238 C864.302325,1284.61155 864.140411,1284.14121 863.102173,1284.14121 M769.102173,1284.14121 L736.209484,1284.14121 L736.209484,1284.1398 C735.171246,1284.1398 734.069095,1283.37763 733.746687,1282.43839 L723.581612,1252.7055 C723.259204,1251.76483 722.740796,1251.76483 722.418388,1252.7055 L712.254733,1282.43839 C711.933746,1283.37763 710.831594,1284.1398 709.791936,1284.1398 L676.897827,1284.1398 C675.859589,1284.1398 675.697675,1284.61013 676.538492,1285.19096 L703.149201,1303.56506 C703.990017,1304.14589 704.411846,1305.37839 704.089438,1306.31763 L693.927204,1336.05052 C693.604796,1336.98835 694.026625,1337.28019 694.867441,1336.69935 L721.47815,1318.32526 C722.318967,1317.74442 723.681033,1317.74442 724.52185,1318.32526 L751.132559,1336.70077 C751.973375,1337.2816 752.395204,1336.99119 752.072796,1336.05194 L741.910562,1306.31905 C741.588154,1305.3798 742.009983,1304.14872 742.850799,1303.56648 L769.461508,1285.19238 C770.302325,1284.61155 770.140411,1284.14121 769.102173,1284.14121 M674.102173,1284.14121 L641.209484,1284.14121 L641.209484,1284.1398 C640.171246,1284.1398 639.069095,1283.37763 638.746687,1282.43839 L628.581612,1252.7055 C628.259204,1251.76483 627.740796,1251.76483 627.418388,1252.7055 L617.256153,1282.43839 C616.933746,1283.37763 615.831594,1284.1398 614.793356,1284.1398 L581.897827,1284.1398 C580.859589,1284.1398 580.697675,1284.61013 581.538492,1285.19096 L608.149201,1303.56506 C608.990017,1304.14589 609.411846,1305.37839 609.090858,1306.31763 L598.927204,1336.05052 C598.604796,1336.98835 599.026625,1337.28019 599.867441,1336.69935 L626.47815,1318.32526 C627.318967,1317.74442 628.681033,1317.74442 629.52185,1318.32526 L656.132559,1336.70077 C656.973375,1337.2816 657.395204,1336.99119 657.074216,1336.05194 L646.910562,1306.31905 C646.588154,1305.3798 647.009983,1304.14872 647.850799,1303.56648 L674.461508,1285.19238 C675.302325,1284.61155 675.140411,1284.14121 674.102173,1284.14121 M579.102169,1284.14121 L546.209349,1284.14121 L546.209349,1284.1398 C545.171107,1284.1398 544.068951,1283.37763 543.746542,1282.43839 L533.581427,1252.7055 C533.260438,1251.76483 532.740607,1251.76483 532.418198,1252.7055 L522.255923,1282.43839 C521.933514,1283.37763 520.831358,1284.1398 519.793116,1284.1398 L486.898876,1284.1398 C485.859213,1284.1398 485.697298,1284.61013 486.539539,1285.19096 L513.148934,1303.56506 C513.989754,1304.14589 514.411584,1305.37839 514.090595,1306.31763 L503.9269,1336.05052 C503.605911,1336.98835 504.026321,1337.28019 504.867141,1336.69935 L531.477957,1318.32526 C532.318777,1317.74442 533.680848,1317.74442 534.523088,1318.32526 L561.132483,1336.70077 C561.974724,1337.2816 562.395134,1336.99119 562.074145,1336.05194 L551.91045,1306.31905 C551.588041,1305.3798 552.009871,1304.14872 552.850691,1303.56648 L579.461506,1285.19238 C580.302326,1284.61155 580.140412,1284.14121 579.102169,1284.14121" id="Fill-436"></path>
        </g>
    </g>
</svg>
