<svg xmlns="http://www.w3.org/2000/svg" xmlns:xlink="http://www.w3.org/1999/xlink" width="200" zoomAndPan="magnify" viewBox="0 0 150 149.999998" height="200" preserveAspectRatio="xMidYMid meet" version="1.0"><defs><clipPath id="09d727f8df"><path d="M 42.695312 30.054688 L 107.195312 30.054688 L 107.195312 120 L 42.695312 120 Z M 42.695312 30.054688 " clip-rule="nonzero"/></clipPath></defs><rect x="-15" width="180" fill="#ffffff" y="-15" height="179.999997" fill-opacity="1"/><rect x="-15" width="180" fill="#ffffff" y="-15" height="179.999997" fill-opacity="1"/><rect x="-15" width="180" fill="#ffffff" y="-15" height="179.999997" fill-opacity="1"/><g clip-path="url(#09d727f8df)"><path fill="#000000" d="M 107.207031 97.769531 C 107.207031 98.9375 106.894531 99.988281 106.113281 100.832031 C 104.820312 102.230469 103.550781 103.675781 102.125 104.933594 C 97.175781 109.28125 91.667969 112.839844 85.964844 116.089844 C 83.707031 117.378906 81.316406 118.445312 79.011719 119.65625 C 78.3125 120.023438 77.609375 120.054688 76.890625 119.910156 C 66.230469 117.734375 56.050781 114.269531 46.679688 108.621094 C 45.539062 107.933594 44.511719 107.0625 43.421875 106.300781 C 42.898438 105.9375 42.71875 105.496094 42.71875 104.851562 C 42.726562 96.683594 42.691406 88.515625 42.699219 80.347656 C 42.703125 71.128906 42.742188 61.910156 42.765625 52.691406 C 42.765625 52.246094 42.75 51.800781 42.75 51.351562 C 42.746094 49.925781 43.273438 48.742188 44.410156 47.867188 C 46.503906 46.253906 48.667969 44.75 51.054688 43.511719 C 51.113281 41.90625 51.886719 40.570312 52.839844 39.300781 C 56.128906 34.921875 60.570312 32.394531 65.816406 31.167969 C 68.742188 30.488281 71.714844 30.109375 74.707031 30.234375 C 81.367188 30.511719 87.707031 32.066406 93.566406 35.359375 C 95.214844 36.285156 96.683594 37.441406 97.992188 38.808594 C 98.78125 39.628906 99.402344 40.535156 99.578125 41.691406 C 99.644531 42.132812 99.878906 42.410156 100.289062 42.621094 C 101.394531 43.175781 102.503906 43.738281 103.5625 44.382812 C 104.484375 44.941406 105.351562 45.597656 106.21875 46.246094 C 106.789062 46.675781 106.996094 47.324219 107.039062 48.007812 C 107.101562 48.992188 107.15625 49.984375 107.160156 50.96875 C 107.175781 66.574219 107.1875 82.171875 107.207031 97.769531 Z M 107.207031 97.769531 " fill-opacity="1" fill-rule="nonzero"/></g><path fill="#100f0d" d="M 54.222656 43.535156 C 54.226562 43.4375 54.234375 43.3125 54.242188 43.144531 C 54.425781 43.238281 54.617188 43.28125 54.730469 43.40625 C 56.980469 45.726562 59.785156 47.113281 62.761719 48.203125 C 66.101562 49.429688 69.566406 49.984375 73.109375 50.144531 C 77.398438 50.34375 81.613281 49.960938 85.746094 48.78125 C 89.136719 47.8125 92.273438 46.300781 95.195312 44.34375 C 95.925781 43.855469 96.523438 43.167969 97.183594 42.578125 C 97.3125 42.460938 97.460938 42.371094 97.652344 42.234375 C 97.6875 42.3125 97.707031 42.386719 97.722656 42.457031 C 98.054688 42.097656 98.3125 41.683594 98.527344 41.25 C 98.160156 40.378906 97.570312 39.609375 96.804688 38.910156 C 95.621094 37.832031 94.371094 36.859375 92.976562 36.085938 C 87.335938 32.945312 81.234375 31.453125 74.832031 31.160156 C 71.769531 31.019531 68.738281 31.398438 65.75 32.109375 C 60.90625 33.269531 56.785156 35.605469 53.652344 39.589844 C 53.195312 40.179688 52.816406 40.777344 52.527344 41.417969 C 52.921875 42.234375 53.488281 42.953125 54.222656 43.535156 Z M 91.476562 39.90625 C 91.820312 39.902344 92.085938 40.0625 92.140625 40.617188 C 92.019531 40.722656 91.84375 40.996094 91.632812 41.027344 C 91.300781 41.074219 91.035156 40.847656 90.996094 40.472656 C 90.960938 40.125 91.144531 39.910156 91.476562 39.90625 Z M 83.40625 35.0625 C 83.628906 34.730469 83.894531 34.785156 84.65625 35.328125 C 84.234375 35.917969 83.867188 36.070312 83.519531 35.808594 C 83.25 35.601562 83.226562 35.335938 83.40625 35.0625 Z M 82.519531 45.898438 C 82.550781 45.480469 82.914062 45.148438 83.355469 45.152344 C 83.726562 45.15625 83.953125 45.316406 83.960938 45.566406 C 83.960938 46.183594 83.558594 46.617188 83.144531 46.601562 C 82.785156 46.585938 82.496094 46.261719 82.519531 45.898438 Z M 75.773438 40.007812 C 75.8125 39.789062 76.066406 39.53125 76.289062 39.441406 C 76.570312 39.328125 77.007812 39.738281 77.023438 40.203125 C 76.851562 40.308594 76.621094 40.550781 76.367188 40.582031 C 76.027344 40.625 75.710938 40.382812 75.773438 40.007812 Z M 69.097656 34.722656 C 69.195312 34.410156 69.5625 34.261719 69.964844 34.40625 C 70.21875 34.503906 70.453125 34.660156 70.757812 34.820312 C 70.558594 35.40625 70.164062 35.488281 69.746094 35.464844 C 69.296875 35.441406 68.988281 35.058594 69.097656 34.722656 Z M 67.519531 44.917969 C 67.90625 44.929688 68.335938 45.304688 68.234375 45.621094 C 68.15625 45.867188 67.882812 46.050781 67.769531 46.179688 C 67.257812 46.167969 66.957031 45.863281 66.945312 45.507812 C 66.9375 45.148438 67.171875 44.90625 67.519531 44.917969 Z M 59.03125 39.539062 C 59.074219 39.160156 59.480469 38.882812 59.953125 38.921875 C 60.425781 38.957031 60.730469 39.230469 60.703125 39.597656 C 60.671875 40.007812 60.191406 40.347656 59.730469 40.289062 C 59.296875 40.234375 58.988281 39.902344 59.03125 39.539062 Z M 59.03125 39.539062 " fill-opacity="1" fill-rule="nonzero"/><path fill="#ffffff" d="M 77.976562 103.234375 C 75.4375 102.738281 73.027344 102.34375 70.652344 101.789062 C 63.09375 100.015625 55.761719 97.542969 48.679688 94.347656 C 47.03125 93.601562 45.453125 92.703125 43.835938 91.890625 C 43.539062 91.738281 43.402344 91.546875 43.425781 91.222656 C 43.4375 91.066406 43.425781 90.902344 43.425781 90.746094 C 43.414062 83.15625 43.402344 75.570312 43.394531 67.984375 C 43.394531 67.667969 43.394531 67.351562 43.394531 66.886719 C 54.335938 72.710938 66.074219 75.730469 77.976562 78.246094 C 77.976562 86.582031 77.976562 94.792969 77.976562 103.234375 Z M 78.730469 78.21875 C 78.730469 86.472656 78.730469 94.722656 78.730469 103.082031 C 79.355469 102.808594 79.875 102.578125 80.390625 102.347656 C 84.929688 100.328125 89.289062 97.976562 93.5 95.328125 C 97.960938 92.519531 102.035156 89.21875 105.832031 85.558594 C 106.289062 85.117188 106.464844 84.691406 106.464844 84.074219 C 106.445312 77.597656 106.453125 71.121094 106.453125 64.644531 C 106.453125 64.367188 106.429688 64.089844 106.414062 63.683594 C 97.964844 70.292969 88.695312 74.9375 78.730469 78.21875 Z M 78.730469 78.21875 " fill-opacity="1" fill-rule="nonzero"/><path fill="#ffffff" d="M 78.59375 75.292969 C 78.59375 72.15625 78.59375 69.207031 78.59375 66.257812 C 78.53125 66.238281 78.460938 66.21875 78.398438 66.199219 C 78.296875 66.3125 78.128906 66.417969 78.109375 66.546875 C 78.054688 66.859375 78.058594 67.183594 78.058594 67.5 C 78.050781 69.699219 78.042969 71.902344 78.039062 74.101562 C 78.039062 74.417969 78.039062 74.730469 78.039062 75.1875 C 65.847656 73.199219 54.296875 69.628906 43.421875 63.855469 C 43.40625 63.5 43.382812 63.183594 43.378906 62.867188 C 43.351562 59.425781 43.296875 55.976562 43.335938 52.535156 C 43.34375 51.664062 43.59375 50.78125 43.839844 49.933594 C 44.054688 49.191406 44.53125 48.597656 45.214844 48.164062 C 46.746094 47.199219 48.246094 46.175781 49.765625 45.1875 C 50.105469 44.960938 50.480469 44.78125 50.984375 44.496094 C 51.03125 44.921875 51.09375 45.25 51.09375 45.578125 C 51.097656 47.882812 52.179688 49.566406 53.996094 50.886719 C 56.996094 53.070312 60.328125 54.515625 63.894531 55.441406 C 68.296875 56.585938 72.78125 56.988281 77.3125 56.851562 C 81.523438 56.722656 85.671875 56.199219 89.703125 54.910156 C 91.929688 54.195312 94 53.1875 95.921875 51.835938 C 97.027344 51.058594 97.972656 50.125 98.8125 49.074219 C 99.386719 48.363281 99.671875 47.519531 99.753906 46.609375 C 99.855469 45.566406 99.929688 44.519531 100.019531 43.410156 C 100.203125 43.484375 100.410156 43.539062 100.582031 43.644531 C 102.191406 44.609375 103.785156 45.59375 105.398438 46.542969 C 105.914062 46.847656 106.144531 47.289062 106.269531 47.839844 C 106.484375 48.777344 106.539062 49.71875 106.527344 50.679688 C 106.480469 53.617188 106.46875 56.550781 106.476562 59.484375 C 106.480469 60.082031 106.339844 60.5 105.84375 60.863281 C 104.382812 61.941406 103.011719 63.140625 101.511719 64.15625 C 95.304688 68.371094 88.664062 71.765625 81.597656 74.296875 C 80.675781 74.628906 79.742188 74.914062 78.59375 75.292969 Z M 45.621094 51.25 C 45.585938 51.621094 45.898438 51.769531 46.144531 51.921875 C 47.148438 52.535156 48.136719 53.1875 49.183594 53.714844 C 53.695312 56 58.402344 57.835938 63.179688 59.46875 C 67.78125 61.042969 72.4375 62.414062 77.242188 63.199219 C 77.542969 63.246094 77.84375 63.386719 78.121094 63.15625 C 78.097656 63.050781 78.09375 62.949219 78.070312 62.945312 C 66.835938 60.339844 56.007812 56.621094 45.828125 51.140625 C 45.796875 51.125 45.722656 51.191406 45.621094 51.25 Z M 80.960938 61.886719 C 81.6875 62.171875 81.6875 62.179688 82.894531 61.695312 C 87.234375 59.941406 91.351562 57.738281 95.410156 55.429688 C 98.148438 53.875 100.820312 52.214844 103.328125 50.304688 C 103.90625 49.859375 104.417969 49.332031 104.933594 48.816406 C 105.03125 48.726562 105.007812 48.511719 105.039062 48.359375 C 104.980469 48.320312 104.929688 48.277344 104.875 48.234375 C 102.535156 50.242188 99.988281 51.949219 97.339844 53.496094 C 94.683594 55.054688 91.996094 56.570312 89.253906 57.972656 C 86.535156 59.363281 83.730469 60.589844 80.960938 61.886719 Z M 43.421875 95.152344 C 43.421875 95.515625 43.425781 95.855469 43.421875 96.191406 C 43.394531 99.027344 43.382812 101.867188 43.324219 104.703125 C 43.316406 105.160156 43.511719 105.390625 43.828125 105.644531 C 45.765625 107.160156 47.851562 108.433594 50.011719 109.59375 C 56.761719 113.21875 63.875 115.921875 71.273438 117.871094 C 73.175781 118.371094 75.097656 118.800781 77.015625 119.238281 C 77.320312 119.308594 77.660156 119.246094 77.980469 119.246094 C 77.980469 114.652344 77.980469 110.195312 77.980469 105.675781 C 65.765625 104.308594 54.4375 100.441406 43.421875 95.152344 Z M 78.730469 105.484375 C 78.542969 107.523438 78.589844 118.085938 78.792969 118.78125 C 79.117188 118.644531 79.4375 118.519531 79.75 118.371094 C 85.515625 115.644531 90.902344 112.277344 96.121094 108.628906 C 98.625 106.878906 101.074219 105.039062 103.242188 102.878906 C 104.296875 101.828125 105.234375 100.652344 106.179688 99.496094 C 106.375 99.257812 106.460938 98.859375 106.460938 98.535156 C 106.472656 95.476562 106.457031 92.414062 106.445312 89.355469 C 106.445312 89.039062 106.445312 88.722656 106.445312 88.230469 C 98.289062 95.984375 88.898438 101.386719 78.730469 105.484375 Z M 78.730469 105.484375 " fill-opacity="1" fill-rule="nonzero"/><path fill="#100f0d" d="M 98.96875 43.429688 C 98.964844 42.640625 98.808594 41.917969 98.527344 41.253906 C 98.3125 41.691406 98.050781 42.101562 97.722656 42.460938 C 97.804688 42.886719 97.550781 43.167969 97.316406 43.394531 C 96.722656 43.964844 96.121094 44.546875 95.441406 45 C 92.105469 47.21875 88.519531 48.878906 84.601562 49.785156 C 77.816406 51.355469 71.054688 51.347656 64.328125 49.496094 C 61.25 48.644531 58.335938 47.375 55.792969 45.378906 C 55.296875 44.988281 54.855469 44.519531 54.425781 44.058594 C 54.242188 43.867188 54.210938 43.800781 54.21875 43.535156 C 53.484375 42.953125 52.914062 42.234375 52.523438 41.417969 C 52.195312 42.15625 51.984375 42.949219 51.921875 43.835938 C 51.691406 47.058594 52.359375 48.625 55.023438 50.472656 C 55.050781 50.492188 55.078125 50.503906 55.105469 50.523438 C 56.816406 51.699219 58.640625 52.65625 60.578125 53.402344 C 65.550781 55.308594 70.734375 55.921875 76.691406 56.03125 C 77.980469 55.9375 79.945312 55.820312 81.910156 55.652344 C 82.890625 55.566406 83.871094 55.421875 84.839844 55.246094 C 87.5625 54.742188 90.234375 54.042969 92.730469 52.800781 C 94.742188 51.796875 96.597656 50.574219 98.046875 48.832031 C 98.363281 48.449219 98.734375 47.988281 98.785156 47.535156 C 98.925781 46.167969 98.976562 44.796875 98.96875 43.429688 Z M 54.234375 48.859375 C 53.738281 48.15625 53.585938 46.476562 53.953125 45.636719 C 54.316406 45.625 54.320312 45.898438 54.359375 46.144531 C 54.613281 47.71875 54.582031 48.378906 54.234375 48.859375 Z M 56.757812 47.515625 C 57.320312 48.585938 57.203125 49.589844 57.417969 50.632812 C 56.585938 50.289062 56.21875 48.515625 56.757812 47.515625 Z M 60.167969 52.242188 C 59.40625 51.503906 59.15625 50.074219 59.644531 49.332031 C 60.226562 50.027344 60.175781 50.878906 60.34375 51.652344 C 60.378906 51.8125 60.242188 52.015625 60.167969 52.242188 Z M 62.835938 52.910156 C 62.179688 52.242188 62.015625 50.636719 62.542969 49.96875 C 63.082031 50.84375 63.234375 52.335938 62.835938 52.910156 Z M 65.949219 53.695312 C 65.453125 53.777344 65.4375 53.496094 65.390625 53.25 C 65.207031 52.34375 65.34375 51.421875 65.8125 50.828125 C 66.113281 51.851562 65.996094 52.785156 65.949219 53.695312 Z M 68.390625 54.15625 C 68.253906 53.246094 67.941406 52.355469 68.28125 51.375 C 68.898438 52 68.996094 53.660156 68.390625 54.15625 Z M 71.847656 54.703125 C 71.082031 54.324219 70.894531 52.894531 71.503906 51.988281 C 71.871094 52.910156 71.929688 53.769531 71.847656 54.703125 Z M 74.96875 54.664062 C 74.496094 53.832031 74.550781 53.113281 74.589844 52.324219 C 75.210938 52.691406 75.375 53.660156 74.96875 54.664062 Z M 77.566406 54.511719 C 77.335938 53.765625 77.15625 53.085938 77.519531 52.210938 C 78.132812 53.074219 78.125 53.894531 77.566406 54.511719 Z M 80.6875 54.550781 C 80.074219 53.847656 79.996094 52.671875 80.558594 51.789062 C 80.972656 52.800781 80.921875 53.621094 80.6875 54.550781 Z M 83.964844 53.925781 C 83.429688 53.316406 83.441406 52.511719 84.085938 51.503906 C 84.324219 52.449219 84.339844 53.171875 83.964844 53.925781 Z M 86.714844 53.78125 C 86.089844 53.039062 86.082031 51.886719 86.707031 51.070312 C 86.917969 51.945312 87.148438 52.820312 86.714844 53.78125 Z M 89.6875 52.75 C 89.339844 51.703125 89.210938 50.863281 89.613281 49.929688 C 90.234375 50.558594 90.304688 51.820312 89.6875 52.75 Z M 93.25 51.09375 C 92.601562 50.445312 92.492188 49.195312 93.011719 48.039062 C 93.382812 49 93.613281 49.980469 93.25 51.09375 Z M 95.796875 49.117188 C 95.371094 48.457031 95.375 47.484375 95.804688 46.847656 C 96.257812 47.675781 96.253906 48.617188 95.796875 49.117188 Z M 97.78125 47.015625 C 97.199219 46.601562 97.203125 45.671875 97.84375 44.828125 C 98.070312 45.671875 98.023438 46.339844 97.78125 47.015625 Z M 43.5 92.386719 C 48.832031 95.613281 54.542969 97.65625 60.296875 99.574219 C 66.023438 101.480469 71.828125 103.101562 77.933594 103.761719 C 77.933594 104.167969 77.933594 104.558594 77.933594 105.046875 C 76.789062 104.902344 75.660156 104.789062 74.546875 104.609375 C 64.320312 102.949219 54.597656 99.691406 45.242188 95.28125 C 45.097656 95.214844 44.949219 95.152344 44.8125 95.074219 C 43.242188 94.175781 43.339844 94.730469 43.5 92.386719 Z M 43.519531 64.652344 C 48.863281 67.609375 54.507812 69.808594 60.285156 71.675781 C 66.035156 73.535156 71.890625 74.964844 77.980469 75.699219 C 78 76.042969 78.019531 76.347656 78.027344 76.652344 C 78.035156 76.964844 78.027344 77.28125 78.027344 77.640625 C 77.785156 77.652344 77.628906 77.695312 77.492188 77.660156 C 73.425781 76.648438 69.351562 75.660156 65.296875 74.609375 C 59.996094 73.242188 54.851562 71.394531 49.820312 69.261719 C 47.917969 68.457031 46.097656 67.472656 44.261719 66.527344 C 43.25 66.011719 43.246094 65.933594 43.519531 64.652344 Z M 106.421875 61.246094 C 106.4375 61.566406 106.429688 61.757812 106.453125 61.945312 C 106.535156 62.574219 106.332031 63.042969 105.804688 63.417969 C 105.183594 63.859375 104.609375 64.371094 103.996094 64.824219 C 98.589844 68.816406 92.71875 71.980469 86.554688 74.589844 C 84.28125 75.558594 81.921875 76.335938 79.597656 77.1875 C 79.339844 77.28125 79.054688 77.324219 78.707031 77.40625 C 78.707031 76.867188 78.707031 76.40625 78.707031 76.003906 C 88.804688 72.792969 98.082031 68.054688 106.421875 61.246094 Z M 106.367188 85.835938 C 106.53125 86.773438 106.445312 87.386719 105.800781 88.011719 C 101.460938 92.238281 96.546875 95.667969 91.328125 98.679688 C 87.609375 100.828125 83.789062 102.765625 79.800781 104.359375 C 79.484375 104.488281 79.164062 104.605469 78.832031 104.730469 C 78.640625 103.851562 78.636719 103.847656 79.359375 103.539062 C 85.664062 100.863281 91.628906 97.566406 97.261719 93.65625 C 100.226562 91.597656 102.925781 89.238281 105.460938 86.683594 C 105.730469 86.417969 106.003906 86.175781 106.367188 85.835938 Z M 106.367188 85.835938 " fill-opacity="1" fill-rule="nonzero"/></svg>