<svg xmlns="http://www.w3.org/2000/svg" xmlns:xlink="http://www.w3.org/1999/xlink" width="200" zoomAndPan="magnify" viewBox="0 0 150 149.999998" height="200" preserveAspectRatio="xMidYMid meet" version="1.0"><defs><clipPath id="16d41d9f0e"><path d="M 44.476562 29.550781 L 109.882812 29.550781 L 109.882812 95 L 44.476562 95 Z M 44.476562 29.550781 " clip-rule="nonzero"/></clipPath><clipPath id="71cb8fe876"><path d="M 47.777344 126.351562 L 50 126.351562 L 50 128.472656 L 47.777344 128.472656 Z M 47.777344 126.351562 " clip-rule="nonzero"/></clipPath><clipPath id="db36c8dd9d"><path d="M 56.019531 126.351562 L 58.140625 126.351562 L 58.140625 128.472656 L 56.019531 128.472656 Z M 56.019531 126.351562 " clip-rule="nonzero"/></clipPath><clipPath id="7a3d5c5b77"><path d="M 40.144531 104 L 43 104 L 43 107 L 40.144531 107 Z M 40.144531 104 " clip-rule="nonzero"/></clipPath><clipPath id="8d1f593432"><path d="M 40.144531 115 L 43 115 L 43 118 L 40.144531 118 Z M 40.144531 115 " clip-rule="nonzero"/></clipPath></defs><rect x="-15" width="180" fill="#ffffff" y="-15" height="179.999997" fill-opacity="1"/><rect x="-15" width="180" fill="#ffffff" y="-15" height="179.999997" fill-opacity="1"/><path fill="#000000" d="M 98.496094 56.066406 C 95.566406 58.59375 91.585938 62.160156 87.253906 66.167969 C 82.917969 70.171875 79.046875 73.855469 76.292969 76.578125 C 73.539062 79.296875 71.90625 81.054688 72.039062 81.203125 C 72.175781 81.347656 74.054688 79.855469 76.984375 77.328125 C 79.914062 74.800781 83.890625 71.230469 88.226562 67.226562 C 92.5625 63.222656 96.433594 59.535156 99.1875 56.816406 C 101.941406 54.09375 103.574219 52.339844 103.441406 52.191406 C 103.304688 52.046875 101.425781 53.539062 98.496094 56.066406 " fill-opacity="1" fill-rule="nonzero"/><path fill="#000000" d="M 91.679688 49.289062 C 94.445312 46.578125 96.09375 44.839844 95.976562 44.710938 C 95.855469 44.582031 93.992188 46.085938 91.074219 48.628906 C 88.152344 51.167969 84.179688 54.742188 79.84375 58.746094 C 75.507812 62.75 71.632812 66.429688 68.867188 69.140625 C 66.105469 71.847656 64.453125 73.589844 64.574219 73.71875 C 64.691406 73.847656 66.558594 72.339844 69.476562 69.800781 C 72.394531 67.261719 76.367188 63.6875 80.703125 59.683594 C 85.039062 55.675781 88.917969 52 91.679688 49.289062 " fill-opacity="1" fill-rule="nonzero"/><path fill="#000000" d="M 98.46875 40.925781 C 96.558594 39.046875 94.601562 37.699219 93.148438 36.785156 C 91.6875 35.882812 90.707031 35.449219 90.597656 35.613281 C 90.484375 35.777344 91.261719 36.507812 92.550781 37.609375 C 93.828125 38.714844 95.65625 40.175781 97.449219 41.949219 C 99.230469 43.746094 100.710938 45.550781 101.824219 46.824219 C 102.933594 48.105469 103.660156 48.878906 103.828125 48.765625 C 103.992188 48.65625 103.558594 47.675781 102.644531 46.21875 C 101.722656 44.765625 100.34375 42.820312 98.46875 40.925781 " fill-opacity="1" fill-rule="nonzero"/><path fill="#000000" d="M 87.191406 36.007812 C 86.898438 35.742188 80.195312 42.554688 72.21875 51.230469 C 64.242188 59.90625 58.011719 67.15625 58.304688 67.425781 C 58.597656 67.699219 65.300781 60.882812 73.277344 52.207031 C 81.253906 43.53125 87.484375 36.28125 87.191406 36.007812 " fill-opacity="1" fill-rule="nonzero"/><g clip-path="url(#16d41d9f0e)"><path fill="#000000" d="M 107.039062 52.734375 L 72.101562 85.007812 C 71.042969 84.058594 68.441406 81.648438 63.132812 76.355469 C 57.929688 71.164062 55.460938 68.464844 54.5 67.375 L 86.648438 32.410156 C 87.59375 31.414062 89.132812 31.238281 90.390625 31.984375 C 92.789062 33.40625 96.394531 35.851562 99.96875 39.433594 C 103.824219 43.296875 106.175781 46.769531 107.472656 49 C 108.203125 50.261719 108.019531 51.800781 107.039062 52.734375 Z M 66.425781 90.523438 C 66.25 90.699219 66.0625 90.867188 65.875 91.027344 C 65.425781 90.519531 64.75 89.808594 63.914062 88.925781 C 62.242188 87.1875 59.90625 84.804688 57.300781 82.203125 C 54.730469 79.570312 52.355469 77.238281 50.585938 75.585938 C 49.703125 74.757812 49.023438 74.070312 48.515625 73.621094 C 48.511719 73.617188 48.507812 73.613281 48.5 73.609375 C 48.660156 73.417969 48.824219 73.234375 49.003906 73.058594 L 53.113281 68.9375 C 53.617188 69.46875 54.347656 70.246094 55.25 71.1875 C 56.226562 72.222656 57.503906 73.550781 59.15625 75.226562 C 59.96875 76.058594 60.820312 76.921875 61.695312 77.800781 C 65.746094 81.855469 69.074219 85.023438 70.539062 86.402344 Z M 54.640625 90.523438 L 49.003906 84.871094 C 46.714844 82.582031 46.042969 79.277344 46.972656 76.386719 C 47.3125 76.835938 47.726562 77.355469 48.222656 77.917969 C 49.828125 79.726562 52.113281 82.171875 54.695312 84.820312 C 57.308594 87.425781 59.75 89.710938 61.585938 91.292969 C 62.15625 91.789062 62.671875 92.214844 63.113281 92.5625 C 62.289062 92.828125 61.421875 92.96875 60.535156 92.96875 C 58.308594 92.96875 56.214844 92.101562 54.640625 90.523438 Z M 48.1875 74.007812 C 48.582031 74.558594 49.160156 75.328125 49.929688 76.203125 C 51.539062 78.015625 53.820312 80.460938 56.402344 83.105469 C 59.015625 85.714844 61.457031 88 63.296875 89.582031 C 64.179688 90.347656 64.925781 90.945312 65.476562 91.34375 C 64.945312 91.734375 64.378906 92.058594 63.78125 92.3125 C 63.363281 91.859375 62.828125 91.296875 62.203125 90.640625 C 60.53125 88.898438 58.199219 86.515625 55.589844 83.917969 C 53.023438 81.28125 50.644531 78.949219 48.875 77.300781 C 48.214844 76.675781 47.667969 76.136719 47.21875 75.714844 C 47.472656 75.117188 47.792969 74.542969 48.1875 74.007812 Z M 109.171875 48.011719 C 107.820312 45.679688 105.367188 42.054688 101.359375 38.042969 C 97.640625 34.3125 93.886719 31.765625 91.390625 30.285156 C 89.335938 29.070312 86.796875 29.386719 85.214844 31.0625 C 85.210938 31.0625 85.210938 31.066406 85.207031 31.070312 L 52.359375 66.792969 C 52.320312 66.835938 52.285156 66.882812 52.253906 66.929688 L 47.574219 71.625 C 43.535156 75.671875 43.535156 82.257812 47.574219 86.304688 L 53.210938 91.957031 C 55.167969 93.914062 57.765625 94.996094 60.535156 94.996094 C 63.300781 94.996094 65.902344 93.914062 67.859375 91.957031 L 72.550781 87.25 C 72.59375 87.222656 72.636719 87.191406 72.675781 87.15625 L 108.382812 54.171875 C 110.039062 52.597656 110.363281 50.066406 109.171875 48.011719 " fill-opacity="1" fill-rule="nonzero"/></g><path fill="#000000" d="M 49.082031 81.992188 C 48.683594 82.390625 48.683594 83.039062 49.082031 83.4375 C 49.480469 83.835938 50.125 83.835938 50.523438 83.4375 C 50.921875 83.039062 50.921875 82.390625 50.523438 81.992188 C 50.125 81.589844 49.480469 81.589844 49.082031 81.992188 " fill-opacity="1" fill-rule="nonzero"/><path fill="#000000" d="M 55.777344 88.699219 C 55.378906 89.097656 55.378906 89.746094 55.777344 90.144531 C 56.175781 90.542969 56.820312 90.542969 57.21875 90.144531 C 57.617188 89.746094 57.617188 89.097656 57.21875 88.699219 C 56.820312 88.300781 56.175781 88.300781 55.777344 88.699219 " fill-opacity="1" fill-rule="nonzero"/><path fill="#000000" d="M 44.828125 99.671875 C 44.429688 100.070312 44.429688 100.71875 44.828125 101.117188 C 45.226562 101.515625 45.871094 101.515625 46.269531 101.117188 C 46.667969 100.71875 46.667969 100.070312 46.269531 99.671875 C 45.871094 99.273438 45.226562 99.273438 44.828125 99.671875 " fill-opacity="1" fill-rule="nonzero"/><path fill="#000000" d="M 51.28125 99.671875 C 50.882812 100.070312 50.882812 100.71875 51.28125 101.117188 C 51.679688 101.515625 52.324219 101.515625 52.722656 101.117188 C 53.121094 100.71875 53.121094 100.070312 52.722656 99.671875 C 52.324219 99.273438 51.679688 99.273438 51.28125 99.671875 " fill-opacity="1" fill-rule="nonzero"/><path fill="#000000" d="M 44.828125 110.292969 C 44.429688 110.691406 44.429688 111.335938 44.828125 111.738281 C 45.226562 112.136719 45.871094 112.136719 46.269531 111.738281 C 46.667969 111.335938 46.667969 110.691406 46.269531 110.292969 C 45.871094 109.890625 45.226562 109.890625 44.828125 110.292969 " fill-opacity="1" fill-rule="nonzero"/><path fill="#000000" d="M 51.28125 110.292969 C 50.882812 110.691406 50.882812 111.335938 51.28125 111.738281 C 51.679688 112.136719 52.324219 112.136719 52.722656 111.738281 C 53.121094 111.335938 53.121094 110.691406 52.722656 110.292969 C 52.324219 109.890625 51.679688 109.890625 51.28125 110.292969 " fill-opacity="1" fill-rule="nonzero"/><path fill="#000000" d="M 44.828125 121.289062 C 44.429688 121.691406 44.429688 122.335938 44.828125 122.738281 C 45.226562 123.136719 45.871094 123.136719 46.269531 122.738281 C 46.667969 122.335938 46.667969 121.691406 46.269531 121.289062 C 45.871094 120.890625 45.226562 120.890625 44.828125 121.289062 " fill-opacity="1" fill-rule="nonzero"/><path fill="#000000" d="M 51.28125 121.289062 C 50.882812 121.691406 50.882812 122.335938 51.28125 122.738281 C 51.679688 123.136719 52.324219 123.136719 52.722656 122.738281 C 53.121094 122.335938 53.121094 121.691406 52.722656 121.289062 C 52.324219 120.890625 51.679688 120.890625 51.28125 121.289062 " fill-opacity="1" fill-rule="nonzero"/><path fill="#000000" d="M 48.222656 94.566406 C 47.824219 94.964844 47.824219 95.613281 48.222656 96.011719 C 48.621094 96.410156 49.269531 96.410156 49.667969 96.011719 C 50.066406 95.613281 50.066406 94.964844 49.667969 94.566406 C 49.269531 94.167969 48.621094 94.167969 48.222656 94.566406 " fill-opacity="1" fill-rule="nonzero"/><g clip-path="url(#71cb8fe876)"><path fill="#000000" d="M 48.222656 126.726562 C 47.824219 127.125 47.824219 127.773438 48.222656 128.171875 C 48.621094 128.570312 49.269531 128.570312 49.667969 128.171875 C 50.066406 127.773438 50.066406 127.125 49.667969 126.726562 C 49.269531 126.328125 48.621094 126.328125 48.222656 126.726562 " fill-opacity="1" fill-rule="nonzero"/></g><g clip-path="url(#db36c8dd9d)"><path fill="#000000" d="M 56.335938 126.726562 C 55.941406 127.125 55.941406 127.773438 56.335938 128.171875 C 56.734375 128.570312 57.382812 128.570312 57.78125 128.171875 C 58.179688 127.773438 58.179688 127.125 57.78125 126.726562 C 57.382812 126.328125 56.734375 126.328125 56.335938 126.726562 " fill-opacity="1" fill-rule="nonzero"/></g><path fill="#000000" d="M 49.375 106.171875 C 49.773438 105.773438 49.773438 105.125 49.375 104.726562 C 48.976562 104.328125 48.328125 104.328125 47.929688 104.726562 C 47.53125 105.125 47.53125 105.773438 47.929688 106.171875 C 48.328125 106.570312 48.976562 106.570312 49.375 106.171875 " fill-opacity="1" fill-rule="nonzero"/><g clip-path="url(#7a3d5c5b77)"><path fill="#000000" d="M 40.535156 104.855469 C 40.136719 105.257812 40.136719 105.902344 40.535156 106.304688 C 40.933594 106.703125 41.582031 106.703125 41.980469 106.304688 C 42.378906 105.902344 42.378906 105.257812 41.980469 104.855469 C 41.582031 104.457031 40.933594 104.457031 40.535156 104.855469 " fill-opacity="1" fill-rule="nonzero"/></g><path fill="#000000" d="M 56.175781 106.304688 C 56.574219 105.902344 56.574219 105.257812 56.175781 104.855469 C 55.777344 104.457031 55.128906 104.457031 54.730469 104.855469 C 54.332031 105.257812 54.332031 105.902344 54.730469 106.304688 C 55.128906 106.703125 55.777344 106.703125 56.175781 106.304688 " fill-opacity="1" fill-rule="nonzero"/><path fill="#000000" d="M 47.929688 117.171875 C 48.328125 117.570312 48.976562 117.570312 49.375 117.171875 C 49.773438 116.773438 49.773438 116.125 49.375 115.726562 C 48.976562 115.328125 48.328125 115.328125 47.929688 115.726562 C 47.53125 116.125 47.53125 116.773438 47.929688 117.171875 " fill-opacity="1" fill-rule="nonzero"/><g clip-path="url(#8d1f593432)"><path fill="#000000" d="M 40.535156 115.855469 C 40.136719 116.257812 40.136719 116.902344 40.535156 117.304688 C 40.933594 117.703125 41.582031 117.703125 41.980469 117.304688 C 42.378906 116.902344 42.378906 116.257812 41.980469 115.855469 C 41.582031 115.457031 40.933594 115.457031 40.535156 115.855469 " fill-opacity="1" fill-rule="nonzero"/></g><path fill="#000000" d="M 56.175781 115.855469 C 55.777344 115.457031 55.128906 115.457031 54.730469 115.855469 C 54.332031 116.257812 54.332031 116.902344 54.730469 117.304688 C 55.128906 117.703125 55.777344 117.703125 56.175781 117.304688 C 56.574219 116.902344 56.574219 116.257812 56.175781 115.855469 " fill-opacity="1" fill-rule="nonzero"/><path fill="#000000" d="M 52.300781 85.21875 C 51.902344 85.617188 51.902344 86.261719 52.300781 86.664062 C 52.699219 87.0625 53.34375 87.0625 53.742188 86.664062 C 54.140625 86.261719 54.140625 85.617188 53.742188 85.21875 C 53.34375 84.816406 52.699219 84.816406 52.300781 85.21875 " fill-opacity="1" fill-rule="nonzero"/></svg>